<?xml version="1.0" encoding="UTF-8" standalone="no"?>
<!DOCTYPE svg PUBLIC "-//W3C//DTD SVG 1.1//EN" "http://www.w3.org/Graphics/SVG/1.1/DTD/svg11.dtd">
<svg width="100%" height="100%" viewBox="0 0 256 248" version="1.1" xmlns="http://www.w3.org/2000/svg" xmlns:xlink="http://www.w3.org/1999/xlink" xml:space="preserve" xmlns:serif="http://www.serif.com/" style="fill-rule:evenodd;clip-rule:evenodd;stroke-linejoin:round;stroke-miterlimit:2;">
    <g>
        <path d="M216.431,65.967C205.73,65.967 196.029,70.222 188.907,77.123L143.745,44.784C144.027,43.603 144.192,42.377 144.192,41.109C144.192,32.368 137.106,25.281 128.364,25.281C119.623,25.281 112.536,32.368 112.536,41.109C112.536,49.851 119.623,56.937 128.364,56.937C131.425,56.937 134.273,56.053 136.695,54.549L191.979,94.781C196.289,85.791 205.795,78.791 216.431,78.791C231.202,78.791 243.177,90.765 243.177,105.536C243.177,117.34 235.53,127.358 224.92,130.906L228.549,143.215C244.475,138.097 256,123.163 256,105.536C256,83.683 238.285,65.967 216.431,65.967" style="fill:white;fill-opacity:0.3;fill-rule:nonzero;"/>
        <path d="M89.565,27.529C86.334,37.701 87.449,48.209 91.858,57.064L47.478,90.23C46.44,89.606 45.324,89.079 44.119,88.696C35.809,86.056 26.932,90.653 24.293,98.963C21.653,107.273 26.25,116.15 34.559,118.789C42.869,121.429 51.746,116.833 54.386,108.523C55.31,105.613 55.33,102.639 54.631,99.883L109.573,59.476C102.328,52.664 98.544,41.513 101.755,31.402C106.216,17.36 121.216,9.592 135.258,14.053C146.479,17.617 153.693,27.912 153.863,39.07L166.66,39.337C166.604,22.652 155.887,7.185 139.13,1.862C118.356,-4.737 96.164,6.754 89.565,27.529" style="fill:white;fill-opacity:0.3;fill-rule:nonzero;"/>
        <path d="M16.264,134.488C24.874,140.771 35.158,143.071 44.908,141.746L62.416,194.07C61.502,194.847 60.656,195.729 59.917,196.74C54.827,203.716 56.403,213.532 63.437,218.664C70.471,223.797 80.299,222.302 85.389,215.326C90.48,208.35 88.904,198.535 81.87,193.402C79.407,191.605 76.601,190.638 73.777,190.417L52.718,125.85C44.015,130.494 32.29,130.499 23.731,124.254C11.846,115.581 9.183,98.995 17.784,87.207C24.658,77.787 36.644,74.282 47.247,77.679L51.495,65.726C35.7,60.459 17.729,65.611 7.465,79.677C-5.26,97.117 -1.321,121.657 16.264,134.488" style="fill:white;fill-opacity:0.3;fill-rule:nonzero;"/>
        <path d="M218.849,195.98C215.589,185.89 208.6,178.044 199.89,173.441L216.786,120.951C217.991,120.855 219.204,120.635 220.405,120.247C228.691,117.57 233.249,108.717 230.587,100.475C227.924,92.231 219.048,87.719 210.762,90.396C202.476,93.072 197.917,101.925 200.58,110.168C201.513,113.054 203.218,115.469 205.381,117.292L184.087,181.746C193.922,183.057 203.453,189.877 206.693,199.907C211.193,213.836 203.49,228.795 189.489,233.318C178.3,236.933 166.474,232.79 159.879,223.871L149.316,231.063C159.019,244.513 176.687,250.809 193.395,245.411C214.11,238.719 225.506,216.588 218.849,195.98" style="fill:white;fill-opacity:0.3;fill-rule:nonzero;"/>
        <path d="M96.273,238.32C104.857,232.039 110.143,222.932 111.806,213.215L167.018,212.652C167.486,213.764 168.073,214.845 168.817,215.862C173.948,222.875 183.792,224.4 190.805,219.27C197.818,214.139 199.343,204.295 194.213,197.282C189.082,190.269 179.238,188.743 172.225,193.874C169.77,195.671 168.003,198.05 166.943,200.679L98.977,200.852C100.796,210.594 97.279,221.789 88.746,228.032C76.896,236.702 60.261,234.124 51.591,222.274C44.663,212.804 44.918,200.279 51.346,191.205L41.21,183.46C31.438,196.913 30.958,215.659 41.303,229.8C54.13,247.333 78.741,251.147 96.273,238.32" style="fill:white;fill-opacity:0.3;fill-rule:nonzero;"/>
    </g>
</svg>
