<?xml version="1.0" encoding="UTF-8" standalone="no"?>
<!DOCTYPE svg PUBLIC "-//W3C//DTD SVG 1.1//EN" "http://www.w3.org/Graphics/SVG/1.1/DTD/svg11.dtd">
<svg width="100%" height="100%" viewBox="0 0 256 206" version="1.1" xmlns="http://www.w3.org/2000/svg" xmlns:xlink="http://www.w3.org/1999/xlink" xml:space="preserve" xmlns:serif="http://www.serif.com/" style="fill-rule:evenodd;clip-rule:evenodd;stroke-linejoin:round;stroke-miterlimit:2;">
    <g>
        <path d="M30.742,74.567L30.717,74.573C34.734,59.764 42.267,45.423 52.421,33.92C88.976,-7.496 153.437,-11.677 193.988,25.196L162.756,56.429C139.898,37.93 106.425,40.855 86.628,62.597L85.868,62.759L83.392,62.308C81.558,62.018 79.707,61.799 77.843,61.651C75.865,61.494 73.873,61.418 71.87,61.426C69.569,61.439 67.294,61.56 65.048,61.784C62.478,62.04 59.948,62.431 57.464,62.948C55.324,63.395 53.219,63.936 51.153,64.566C49.268,65.142 47.416,65.792 45.601,66.514C43.339,67.413 41.133,68.423 38.991,69.538C37.597,70.263 36.229,71.032 34.89,71.843C33.473,72.701 32.089,73.606 30.742,74.567Z" style="fill:white;fill-opacity:0.31;"/>
        <path d="M224.205,73.918C219.09,55.082 208.589,38.149 193.988,25.196L162.756,56.428C175.944,67.204 183.457,83.438 183.135,100.465L183.135,106.009C198.486,106.009 210.932,118.454 210.932,133.805C210.932,149.157 198.486,161.29 183.135,161.29L127.464,161.29L127.464,205.795L183.135,205.795C223.065,206.106 255.687,174.301 255.998,134.371C256.186,110.168 244.253,87.478 224.205,73.918" style="fill:white;fill-opacity:0.31;fill-rule:nonzero;"/>
        <path d="M71.87,205.796L127.463,205.796L127.463,161.29L71.87,161.29C67.909,161.289 64.073,160.438 60.471,158.792L28.223,191.039C40.79,200.528 56.123,205.864 71.87,205.796" style="fill:white;fill-opacity:0.31;fill-rule:nonzero;"/>
        <path d="M85.868,62.759C103.07,66.076 118.654,75.597 129.494,89.769L97.246,122.016C94.461,115.852 89.524,110.914 83.359,108.129C69.37,101.809 52.904,108.025 46.584,122.016C40.263,136.006 46.48,152.47 60.471,158.792L28.223,191.039C10.548,177.446 0.134,156.456 0.001,134.158C-0.145,109.542 12.026,87.726 30.742,74.567L85.868,62.759Z" style="fill:white;fill-opacity:0.31;"/>
        <path d="M30.742,74.567C32.089,73.606 33.473,72.701 34.89,71.843C36.229,71.032 37.597,70.263 38.991,69.538C41.133,68.423 43.339,67.413 45.601,66.514C47.416,65.792 49.268,65.142 51.153,64.566C53.219,63.936 55.324,63.395 57.464,62.948C59.948,62.431 62.478,62.04 65.048,61.784C67.294,61.56 69.569,61.439 71.87,61.426C73.873,61.418 75.865,61.494 77.843,61.651C79.707,61.799 81.558,62.018 83.392,62.308L85.868,62.759L30.742,74.567Z" style="fill:white;fill-opacity:0.31;"/>
    </g>
</svg>
