<?xml version="1.0" encoding="UTF-8" standalone="no"?>
<!DOCTYPE svg PUBLIC "-//W3C//DTD SVG 1.1//EN" "http://www.w3.org/Graphics/SVG/1.1/DTD/svg11.dtd">
<svg width="100%" height="100%" viewBox="0 0 373 145" version="1.1" xmlns="http://www.w3.org/2000/svg" xmlns:xlink="http://www.w3.org/1999/xlink" xml:space="preserve" xmlns:serif="http://www.serif.com/" style="fill-rule:evenodd;clip-rule:evenodd;stroke-linejoin:round;stroke-miterlimit:2;">
    <g transform="matrix(1,0,0,1,-69,-168.027)">
        <path d="M149.543,244.85C149.543,243.287 148.721,241.852 147.374,241.079L111.441,220.396C110.833,220.04 110.151,219.853 109.462,219.827L109.09,219.827C108.403,219.853 107.723,220.04 107.106,220.396L71.172,241.079C69.832,241.851 69,243.286 69,244.85L69.079,300.532C69.079,301.307 69.481,302.03 70.162,302.407C70.829,302.807 71.654,302.807 72.318,302.407L93.673,290.178C95.024,289.376 95.845,287.961 95.845,286.411L95.845,260.4C95.845,258.849 96.666,257.411 98.012,256.642L107.106,251.406C107.784,251.01 108.525,250.819 109.282,250.819C110.022,250.819 110.782,251.009 111.441,251.406L120.53,256.642C121.876,257.411 122.7,258.849 122.7,260.4L122.7,286.411C122.7,287.961 123.533,289.387 124.875,290.178L146.224,302.407C146.895,302.807 147.731,302.807 148.395,302.407C149.056,302.03 149.473,301.307 149.473,300.532L149.543,244.85" style="fill:white;fill-opacity:0.31;"/>
        <path d="M317.828,273.844C317.828,274.232 317.619,274.589 317.283,274.784L304.941,281.894C304.605,282.088 304.195,282.088 303.859,281.894L291.515,274.784C291.178,274.589 290.973,274.231 290.973,273.844L290.973,259.591C290.973,259.203 291.178,258.845 291.513,258.653L303.856,251.524C304.195,251.33 304.605,251.33 304.944,251.524L317.283,258.653C317.619,258.845 317.828,259.204 317.828,259.591L317.828,273.844M321.163,168.303C320.489,167.927 319.67,167.936 319.004,168.326C318.343,168.716 317.936,169.427 317.936,170.197L317.936,225.343C317.936,225.884 317.643,226.387 317.177,226.658C316.708,226.931 316.128,226.931 315.655,226.658L306.658,221.474C305.313,220.697 303.661,220.7 302.321,221.474L266.373,242.22C265.029,242.996 264.201,244.426 264.201,245.978L264.201,287.478C264.201,289.029 265.029,290.46 266.372,291.239L302.314,312C303.66,312.777 305.315,312.777 306.657,312L342.61,291.239C343.953,290.461 344.78,289.029 344.78,287.478L344.78,184.028C344.78,182.457 343.93,181.006 342.554,180.239L321.163,168.303Z" style="fill:white;fill-opacity:0.31;"/>
        <path d="M439.641,259.221C440.982,258.443 441.802,257.014 441.802,255.466L441.802,245.409C441.802,243.861 440.982,242.431 439.641,241.655L403.926,220.917C402.584,220.135 400.922,220.135 399.576,220.911L363.64,241.657C362.296,242.433 361.471,243.864 361.471,245.417L361.471,286.903C361.471,288.464 362.309,289.903 363.662,290.675L399.374,311.023C400.689,311.777 402.307,311.782 403.628,311.047L425.229,299.042C425.917,298.66 426.343,297.941 426.346,297.16C426.351,296.377 425.936,295.654 425.257,295.262L389.096,274.507C388.418,274.121 388.003,273.401 388.003,272.624L388.003,259.621C388.003,258.849 388.416,258.129 389.09,257.742L400.345,251.252C401.014,250.866 401.841,250.866 402.511,251.252L413.772,257.742C414.444,258.129 414.859,258.848 414.859,259.621L414.859,269.85C414.859,270.628 415.274,271.344 415.947,271.735C416.62,272.12 417.448,272.117 418.12,271.728L439.641,259.221" style="fill:white;fill-opacity:0.31;"/>
        <path d="M204.78,220.692C206.122,219.919 207.778,219.919 209.12,220.692L245.063,241.434C246.408,242.21 247.235,243.642 247.235,245.195L247.235,286.711C247.235,288.261 246.408,289.692 245.066,290.472L209.122,311.23C207.778,312.006 206.123,312.006 204.78,311.23L168.845,290.472C167.503,289.693 166.676,288.261 166.676,286.711L166.676,245.193C166.676,243.642 167.503,242.211 168.847,241.434L204.78,220.692" style="fill:white;fill-opacity:0.31;"/>
    </g>
</svg>
