<?xml version="1.0" encoding="UTF-8" standalone="no"?>
<!DOCTYPE svg PUBLIC "-//W3C//DTD SVG 1.1//EN" "http://www.w3.org/Graphics/SVG/1.1/DTD/svg11.dtd">
<svg width="100%" height="100%" viewBox="0 0 209 209" version="1.1" xmlns="http://www.w3.org/2000/svg" xmlns:xlink="http://www.w3.org/1999/xlink" xml:space="preserve" xmlns:serif="http://www.serif.com/" style="fill-rule:evenodd;clip-rule:evenodd;stroke-linejoin:round;stroke-miterlimit:2;">
    <g id="Artboard1" transform="matrix(1,0,0,1,-189,-191)">
        <rect x="189" y="191" width="209" height="209" style="fill:none;"/>
        <g transform="matrix(1,0,0,1,1.99583,6.94287)">
            <path d="M291.53,361.239C289.583,361.239 287.65,360.729 285.943,359.746L268.16,349.218C265.504,347.733 266.8,347.207 267.676,346.905C271.218,345.665 271.936,345.385 275.716,343.238C276.114,343.011 276.634,343.091 277.04,343.331L290.702,351.438C291.195,351.705 291.895,351.705 292.352,351.438L345.619,320.691C346.112,320.411 346.432,319.838 346.432,319.251L346.432,257.785C346.432,257.172 346.112,256.625 345.608,256.318L292.363,225.598C291.87,225.305 291.216,225.305 290.723,225.598L237.488,256.318C236.972,256.612 236.644,257.185 236.644,257.772L236.644,319.238C236.644,319.825 236.964,320.385 237.471,320.665L252.058,329.091C259.978,333.051 264.818,328.385 264.818,323.691L264.818,263.025C264.818,262.158 265.498,261.492 266.364,261.492L273.111,261.492C273.951,261.492 274.644,262.158 274.644,263.025L274.644,323.718C274.644,334.278 268.884,340.345 258.871,340.345C255.791,340.345 253.364,340.345 246.591,337.011L232.618,328.958C229.164,326.958 227.031,323.225 227.031,319.238L227.031,257.772C227.031,253.772 229.164,250.038 232.618,248.065L285.938,217.305C289.311,215.398 293.791,215.398 297.137,217.305L350.391,248.078C353.831,250.065 355.977,253.785 355.977,257.785L355.977,319.251C355.977,323.238 353.831,326.958 350.391,328.958L297.137,359.718C295.431,360.705 293.498,361.211 291.524,361.211" style="fill:white;fill-opacity:0.3;fill-rule:nonzero;"/>
        </g>
        <g transform="matrix(1,0,0,1,1.99583,6.94287)">
            <path d="M307.983,318.885C284.676,318.885 279.79,308.186 279.79,299.213C279.79,298.359 280.478,297.679 281.332,297.679L288.212,297.679C288.972,297.679 289.612,298.233 289.732,298.983C290.772,305.994 293.866,309.53 307.959,309.53C319.185,309.53 323.959,306.994 323.959,301.041C323.959,297.614 322.599,295.067 305.159,293.361C290.572,291.921 281.559,288.707 281.559,277.041C281.559,266.294 290.626,259.894 305.812,259.894C322.865,259.894 331.319,265.814 332.385,278.534C332.425,278.974 332.265,279.401 331.972,279.721C331.679,280.027 331.265,280.214 330.839,280.214L323.919,280.214C323.199,280.214 322.572,279.707 322.425,279.014C320.759,271.641 316.732,269.281 305.785,269.281C293.532,269.281 292.106,273.547 292.106,276.747C292.106,280.627 293.786,281.761 310.319,283.947C326.692,286.121 334.465,289.187 334.465,300.694C334.465,312.294 324.785,318.947 307.905,318.947" style="fill:white;fill-opacity:0.3;fill-rule:nonzero;"/>
        </g>
    </g>
</svg>
