<?xml version="1.0" encoding="UTF-8" standalone="no"?>
<!DOCTYPE svg PUBLIC "-//W3C//DTD SVG 1.1//EN" "http://www.w3.org/Graphics/SVG/1.1/DTD/svg11.dtd">
<svg width="100%" height="100%" viewBox="0 0 128 128" version="1.1" xmlns="http://www.w3.org/2000/svg" xmlns:xlink="http://www.w3.org/1999/xlink" xml:space="preserve" xmlns:serif="http://www.serif.com/" style="fill-rule:evenodd;clip-rule:evenodd;stroke-linejoin:round;stroke-miterlimit:2;">
    <path d="M35.971,111.33C63.437,115.08 90.415,118.763 117.929,122.518C108.555,106.912 99.422,91.705 90.216,76.374L35.971,111.33ZM125.681,24.947C123.26,28.583 120.834,32.216 118.416,35.854C110.112,48.347 101.809,60.84 93.513,73.339C93.051,74.035 92.452,74.587 93.103,75.66C101.119,88.897 109.072,102.173 117.045,115.437C118.303,117.532 119.575,119.619 121.202,121.629C122.814,89.436 124.425,57.242 126.036,25.049L125.681,24.947ZM16.252,66.22C16.627,66.575 17.563,66.782 17.999,66.567C25.688,62.788 33.426,59.093 40.947,55.003C43.4,53.67 45.286,51.28 47.399,49.342C54.396,42.925 61.382,36.495 68.365,30.064C68.792,29.669 69.298,29.287 69.553,28.789C72.061,23.887 74.526,18.96 77.078,13.891C74.035,12.747 71.15,11.628 68.229,10.61C67.833,10.472 67.209,10.746 66.78,10.985C60.019,14.762 53.131,18.338 46.585,22.457C43.31,24.518 40.642,27.555 37.742,30.2C33.068,34.466 28.4,38.742 23.794,43.082C22.572,44.234 21.458,45.55 20.506,46.936C17.356,51.523 14.3,56.176 11.104,60.961C12.89,62.808 14.514,64.574 16.252,66.22ZM44.354,59.949C40.529,76.108 36.727,92.176 32.798,108.772C51.221,96.901 69.219,85.304 87.098,73.785C72.87,69.18 58.688,64.589 44.354,59.949ZM120.985,25.103C105.419,27.704 90.225,30.242 74.835,32.813C80.077,45.564 85.214,58.059 90.497,70.909C100.718,55.55 110.737,40.499 120.985,25.103ZM44.996,56.644C59.013,61.194 72.751,65.654 86.888,70.244C81.638,57.454 76.568,45.111 71.393,32.507C62.578,40.566 53.895,48.506 44.996,56.644ZM16.831,75.643C11.86,87.526 7.058,99.005 2.169,110.691C11.565,110.413 20.673,110.144 30.094,109.866C25.671,98.454 21.335,87.266 16.831,75.643ZM30.424,101.739L30.77,101.663C34.123,87.722 37.524,73.877 40.947,59.391C33.311,63.36 26.027,67.145 18.544,71.035C22.363,80.961 26.435,91.432 30.424,101.739ZM115.351,22.842C110.892,21.661 106.433,20.476 101.972,19.303C95.56,17.617 89.143,15.952 82.735,14.251C81.934,14.038 81.355,13.899 80.884,14.864C78.619,19.504 76.284,24.109 73.983,28.732C73.912,28.875 73.927,29.06 73.872,29.419C87.758,27.315 101.551,25.224 115.342,23.134L115.351,22.842ZM89.482,12.288L125.825,22.342C123.741,16.403 121.808,10.896 119.82,5.232L89.535,11.947L89.482,12.288ZM33.505,114.007C29.004,113.488 24.383,113.965 19.818,114.044C16.068,114.107 12.318,114.25 8.568,114.367C8.182,114.379 7.797,114.457 7.412,114.873C38.415,117.739 69.417,120.605 100.419,123.473L100.482,123.059C90.544,121.702 80.605,120.345 70.667,118.989C58.283,117.298 45.92,115.438 33.505,114.007ZM2.782,99.994C6.777,90.724 10.755,81.448 14.766,72.185C15.167,71.256 15.136,70.625 14.351,69.877C12.673,68.28 11.114,66.559 9.28,64.651C6.801,76.891 4.383,88.828 1.963,100.764L2.234,100.891C2.419,100.594 2.645,100.313 2.782,99.994ZM81.522,9.841C88.259,8.103 95.094,6.744 101.889,5.228C102.329,5.129 102.759,4.984 103.192,4.86L103.125,4.528C93.554,5.815 83.984,7.103 73.931,8.456C76.672,9.653 78.784,10.547 81.522,9.841Z" style="fill:white;fill-opacity:0.3;"/>
</svg>
