<?xml version="1.0" encoding="UTF-8" standalone="no"?>
<!DOCTYPE svg PUBLIC "-//W3C//DTD SVG 1.1//EN" "http://www.w3.org/Graphics/SVG/1.1/DTD/svg11.dtd">
<svg width="100%" height="100%" viewBox="0 0 50 50" version="1.1" xmlns="http://www.w3.org/2000/svg" xmlns:xlink="http://www.w3.org/1999/xlink" xml:space="preserve" xmlns:serif="http://www.serif.com/" style="fill-rule:evenodd;clip-rule:evenodd;stroke-linejoin:round;stroke-miterlimit:2;">
    <g transform="matrix(1.43773,0,0,1.43773,-9.49346,-10.2244)">
        <path d="M28,10C36.338,15.753 38.001,21.858 38,25.875C37.999,28.635 37,30.375 37,30.375C37,30.375 41.232,34.992 39.615,39C39.615,39 37.965,36.193 35.199,36.193C32.533,36.193 30.492,39 25.125,39C13.176,38.999 8,29 8,29C12.539,32.03 16.5,33 19.5,32.999C23.657,32.998 26,31 26,31C21.15,28.144 11,15 11,15C19.983,22.761 23.815,24.254 23.815,24.254C21.498,22.309 15,13 15,13C20.199,18.345 31,26 31,26C31.627,24.236 32.024,22.119 31.998,20.5C31.904,14.546 28,10 28,10Z" style="fill:white;fill-opacity:0.3;fill-rule:nonzero;"/>
    </g>
</svg>
