<?xml version="1.0" encoding="UTF-8" standalone="no"?>
<!DOCTYPE svg PUBLIC "-//W3C//DTD SVG 1.1//EN" "http://www.w3.org/Graphics/SVG/1.1/DTD/svg11.dtd">
<svg width="100%" height="100%" viewBox="0 0 128 30" version="1.1" xmlns="http://www.w3.org/2000/svg" xmlns:xlink="http://www.w3.org/1999/xlink" xml:space="preserve" xmlns:serif="http://www.serif.com/" style="fill-rule:evenodd;clip-rule:evenodd;stroke-linejoin:round;stroke-miterlimit:2;">
    <g transform="matrix(1,0,0,1,-210.366,-197.373)">
        <g transform="matrix(36,0,0,36,207.431,226.799)">
            <path d="M0.317,-0.648C0.345,-0.648 0.367,-0.656 0.384,-0.672C0.4,-0.687 0.409,-0.708 0.409,-0.733C0.409,-0.758 0.4,-0.779 0.384,-0.794C0.367,-0.81 0.345,-0.817 0.317,-0.817C0.29,-0.817 0.267,-0.81 0.251,-0.794C0.234,-0.779 0.226,-0.758 0.226,-0.733C0.226,-0.708 0.234,-0.687 0.251,-0.672C0.267,-0.656 0.29,-0.648 0.317,-0.648ZM0.547,-0L0.547,-0.106L0.384,-0.106L0.384,-0.539L0.09,-0.539L0.09,-0.432L0.254,-0.432L0.254,-0.106L0.082,-0.106L0.082,-0L0.547,-0Z" style="fill:rgb(239,139,184);fill-rule:nonzero;"/>
        </g>
        <g transform="matrix(36,0,0,36,229.685,226.799)">
            <path d="M0.217,-0L0.351,-0L0.351,-0.426L0.565,-0.426L0.565,-0.533L0.348,-0.533L0.348,-0.58C0.348,-0.62 0.373,-0.641 0.424,-0.641C0.447,-0.641 0.471,-0.64 0.495,-0.64C0.52,-0.64 0.543,-0.639 0.565,-0.639L0.565,-0.737C0.544,-0.738 0.52,-0.738 0.495,-0.739C0.469,-0.739 0.444,-0.739 0.42,-0.739C0.371,-0.739 0.332,-0.734 0.302,-0.723C0.273,-0.712 0.251,-0.694 0.237,-0.669C0.224,-0.645 0.217,-0.612 0.217,-0.571L0.217,-0.533L0.073,-0.533L0.073,-0.426L0.217,-0.426L0.217,-0Z" style="fill:rgb(239,139,184);fill-rule:nonzero;"/>
        </g>
        <g transform="matrix(36,0,0,36,274.192,226.799)">
            <path d="M0.547,-0L0.547,-0.106L0.386,-0.106L0.386,-0.744L0.09,-0.744L0.09,-0.637L0.252,-0.637L0.252,-0.106L0.082,-0.106L0.082,-0L0.547,-0Z" style="fill:rgb(239,139,184);fill-rule:nonzero;"/>
        </g>
        <g transform="matrix(36,0,0,36,296.446,226.799)">
            <path d="M0.315,-0.446C0.349,-0.446 0.376,-0.435 0.395,-0.414C0.413,-0.392 0.423,-0.361 0.423,-0.323L0.205,-0.323C0.205,-0.361 0.214,-0.392 0.234,-0.414C0.253,-0.435 0.281,-0.446 0.315,-0.446ZM0.426,-0.151C0.421,-0.134 0.409,-0.119 0.389,-0.108C0.37,-0.097 0.347,-0.092 0.32,-0.092C0.285,-0.092 0.257,-0.102 0.236,-0.124C0.215,-0.145 0.205,-0.173 0.205,-0.208L0.205,-0.237L0.552,-0.237L0.552,-0.312C0.552,-0.36 0.542,-0.402 0.523,-0.438C0.504,-0.473 0.477,-0.501 0.442,-0.521C0.407,-0.54 0.365,-0.55 0.318,-0.55C0.269,-0.55 0.226,-0.54 0.19,-0.521C0.153,-0.501 0.125,-0.474 0.104,-0.438C0.084,-0.403 0.074,-0.362 0.074,-0.315L0.074,-0.229C0.074,-0.153 0.095,-0.093 0.138,-0.051C0.182,-0.009 0.242,0.012 0.32,0.012C0.362,0.012 0.4,0.005 0.434,-0.009C0.467,-0.023 0.494,-0.043 0.515,-0.067C0.536,-0.092 0.548,-0.12 0.552,-0.151L0.426,-0.151Z" style="fill:rgb(239,139,184);fill-rule:nonzero;"/>
        </g>
        <g transform="matrix(36,0,0,36,318.7,226.799)">
            <path d="M0.198,-0.692L0.198,-0.533L0.058,-0.533L0.058,-0.426L0.198,-0.426L0.198,-0.17C0.198,-0.129 0.205,-0.095 0.218,-0.07C0.232,-0.045 0.253,-0.027 0.283,-0.016C0.312,-0.005 0.352,0.001 0.4,0.001C0.421,0.001 0.442,0.001 0.464,0C0.486,-0 0.505,-0.001 0.523,-0.001L0.523,-0.106C0.507,-0.106 0.489,-0.106 0.469,-0.106C0.45,-0.106 0.431,-0.105 0.411,-0.105C0.385,-0.105 0.366,-0.111 0.352,-0.122C0.338,-0.133 0.331,-0.149 0.331,-0.169L0.331,-0.426L0.529,-0.426L0.529,-0.533L0.329,-0.533L0.329,-0.692L0.198,-0.692Z" style="fill:rgb(239,139,184);fill-rule:nonzero;"/>
        </g>
    </g>
</svg>
