<?xml version="1.0" encoding="UTF-8" standalone="no"?>
<!DOCTYPE svg PUBLIC "-//W3C//DTD SVG 1.1//EN" "http://www.w3.org/Graphics/SVG/1.1/DTD/svg11.dtd">
<svg width="100%" height="100%" viewBox="0 0 5471 820" version="1.1" xmlns="http://www.w3.org/2000/svg" xmlns:xlink="http://www.w3.org/1999/xlink" xml:space="preserve" xmlns:serif="http://www.serif.com/" style="fill-rule:evenodd;clip-rule:evenodd;stroke-linejoin:round;stroke-miterlimit:2;">
    <g opacity="0.3">
        <g>
            <g>
                <path d="M719,201.9L356.8,201.9L408.8,292.6L429.7,292.6L432.7,292.7L675.9,292.7C682.2,292.7 697.4,295.8 697.5,316.1L697.5,504C697.4,524.4 682.2,527.4 675.9,527.4L369.2,528.1L369,451.1L621.5,451.1L621.5,364.7L363.6,365L266.2,201.1L161.3,201.1L278.9,406L278.8,617.5L366.5,617.5L366.5,617.6L724.7,617.6C765,617.6 788.5,582.5 788.5,512L788.5,293C788.5,232.7 765,201.9 719,201.9" style="fill:white;"/>
                <path d="M2017.6,451.2L1729.8,451.2L1729.8,618.4L1639.6,618.4L1639.6,285.9C1639.6,229 1669.3,201.1 1726.2,201.1L2031.4,201.1C2082.8,201.1 2108.1,231.8 2108.1,292.2L2108.1,618.4L2017.9,618.4L2017.6,451.2ZM2017,361.1L2017,316.2C2017.5,297 1999.4,291.8 1994.9,291.8L1751.5,291.8C1745.2,291.8 1729.9,294.9 1729.9,315.3L1729.9,361.1L2017,361.1Z" style="fill:white;"/>
                <path d="M2768.2,451.2L2768.2,617.6L2678,617.6L2678,201.4L2768.2,201.4L2768.2,361.3L2926,361.3L3020.8,201.3L3125.7,201.3L3008.1,406L3125.7,618.1L3021.5,618.1L2925,451.2L2768.2,451.2Z" style="fill:white;"/>
                <path d="M4851.3,618.4L4851.3,201.1L5293.3,201.1L5293.3,292.3L4940.8,292.3L4940.8,361.3L5293.3,361.3L5293.3,451.4L4940.8,451.4L4940.8,527.7L5293.3,527.7L5293.3,618.4L4851.3,618.4Z" style="fill:white;"/>
                <path d="M4646.7,526.9C4652.9,526.9 4668.2,523.8 4668.3,503.4L4668.3,474.1C4668.2,453.8 4653,450.7 4646.7,450.7L4359.6,450.6C4317.1,450.6 4298.6,419.5 4298.6,356.4L4298.6,292.4C4298.6,231.9 4320.3,201.3 4362.7,201.3L4765.5,201.3L4712.2,292.1L4410.4,291.9C4404.1,291.9 4388.9,295 4388.7,315.4L4388.7,338C4388.9,358.4 4404.1,361.4 4410.4,361.4L4690.1,361.3C4737,361.3 4760.5,388.9 4760.5,454.7L4760.5,511.7C4760.5,582.9 4737,618.1 4690.1,618.1L4281.6,618.1L4336.6,527.1L4646.7,526.9Z" style="fill:white;"/>
                <path d="M2611.3,292.6L2292.3,292.8C2286,292.8 2270.8,295.9 2270.7,316.2L2270.7,504C2270.8,524.4 2286,527.4 2292.3,527.4L2611.6,527.3L2611.6,617.6L2249.2,617.6C2203.2,617.6 2179.6,582.5 2179.6,512L2179.6,293C2179.6,232.6 2203.1,201.9 2249.2,201.9L2611.6,201.9L2611.6,292.6L2611.3,292.6Z" style="fill:white;"/>
                <path d="M1542.7,284.3C1542.7,223.8 1518.3,201.3 1473.2,201.9L1084.1,201.9L1084.1,618L1473.2,618C1518.3,618.1 1542.7,597.8 1542.7,537.4L1542.7,465.3C1542.7,441.9 1538.2,423.9 1529.7,410.9C1538.2,397.8 1542.7,379.9 1542.7,356.5L1542.7,284.3ZM1450.3,503.2C1450.8,522.5 1432.7,527.7 1428.2,527.7L1174.8,527.6L1174.8,451.3L1428.2,451.2C1432.7,451.2 1450.8,456.3 1450.3,475.6L1450.3,503.2ZM1450.3,336.6C1450.8,355.9 1432.7,361 1428.2,361L1174.8,360.9L1174.8,292.4L1428.2,292.3C1432.7,292.3 1450.8,297.4 1450.3,316.7L1450.3,336.6Z" style="fill:white;"/>
                <path d="M3638.5,284.3C3638.5,223.8 3614.1,201.3 3569,201.9L3180,201.9L3180,618L3569,618C3614.1,618.1 3638.5,597.8 3638.5,537.4L3638.5,465.3C3638.5,441.9 3634,423.9 3625.5,410.9C3634,397.8 3638.5,379.9 3638.5,356.5L3638.5,284.3ZM3546.2,503.2C3546.7,522.5 3528.5,527.7 3524.1,527.7L3270.7,527.6L3270.7,451.3L3524.1,451.2C3528.6,451.2 3546.7,456.3 3546.2,475.6L3546.2,503.2ZM3546.2,336.6C3546.7,355.9 3528.5,361 3524.1,361L3270.7,360.9L3270.7,292.4L3524.1,292.3C3528.6,292.3 3546.7,297.4 3546.2,316.7L3546.2,336.6Z" style="fill:white;"/>
                <path d="M4113.4,451.2L3825.7,451.2L3825.7,618.4L3735.5,618.4L3735.5,285.9C3735.5,229 3765.3,201.1 3822.2,201.1L4127.4,201.1C4178.7,201.1 4204,231.8 4204,292.2L4204,618.4L4113.8,618.4L4113.4,451.2ZM4112.8,361.1L4112.8,316.2C4113.3,297 4095.2,291.8 4090.7,291.8L3847.4,291.8C3841.1,291.8 3825.8,294.9 3825.8,315.3L3825.8,361.1L4112.8,361.1Z" style="fill:white;"/>
            </g>
        </g>
    </g>
</svg>
