<?xml version="1.0" encoding="UTF-8" standalone="no"?>
<!DOCTYPE svg PUBLIC "-//W3C//DTD SVG 1.1//EN" "http://www.w3.org/Graphics/SVG/1.1/DTD/svg11.dtd">
<svg width="100%" height="100%" viewBox="0 0 84 28" version="1.1" xmlns="http://www.w3.org/2000/svg" xmlns:xlink="http://www.w3.org/1999/xlink" xml:space="preserve" xmlns:serif="http://www.serif.com/" style="fill-rule:evenodd;clip-rule:evenodd;stroke-linejoin:round;stroke-miterlimit:2;">
    <g transform="matrix(0.80947,0,0,0.80947,8.01212,2.66904)">
        <g opacity="0.3">
            <g transform="matrix(0.794046,0,0,0.794046,8.64755,2.88294)">
                <path d="M62.195,21.471C59.521,21.104 59.669,18.265 59.669,16.099L59.669,11.432L64.299,11.432C64.662,11.431 64.96,11.133 64.96,10.77L64.96,5.799C64.96,5.436 64.662,5.138 64.299,5.137L59.669,5.137L59.669,0.663C59.669,0.301 59.372,0.002 59.01,0L53.465,-0C53.103,-0 52.806,0.297 52.806,0.659L52.806,15.33C52.806,18.138 52.692,21.228 54.082,23.78C55.599,26.566 58.77,27.812 61.852,27.834L66.284,27.834C66.647,27.833 66.945,27.535 66.945,27.172L66.945,22.28C66.945,21.916 66.646,21.617 66.282,21.617L66.28,21.617C64.941,21.627 63.463,21.646 62.196,21.471L62.195,21.471ZM79.226,21.471C76.553,21.104 76.7,18.265 76.7,16.099L76.7,11.432L81.33,11.432C81.693,11.431 81.991,11.133 81.991,10.77L81.991,5.8C81.992,5.437 81.694,5.138 81.331,5.137L76.7,5.137L76.7,0.663C76.7,0.3 76.403,0.002 76.04,0L70.496,-0C70.134,-0 69.836,0.298 69.836,0.66L69.836,15.329C69.836,18.138 69.723,21.228 71.113,23.78C72.63,26.566 75.801,27.812 78.883,27.834L83.314,27.834C83.677,27.834 83.976,27.535 83.976,27.172L83.976,22.28C83.976,21.916 83.677,21.617 83.313,21.617L83.311,21.617C81.971,21.627 80.494,21.646 79.226,21.471Z" style="fill:white;"/>
                <path d="M37.855,5.12C31.55,5.12 26.439,10.241 26.439,16.558C26.439,22.875 31.55,27.996 37.855,27.996C44.159,27.996 49.27,22.876 49.27,16.558C49.27,13.527 48.067,10.617 45.926,8.471C43.788,6.328 40.882,5.122 37.855,5.121L37.855,5.12ZM37.855,21.989C34.881,21.986 32.435,19.538 32.435,16.564L32.435,16.559C32.435,13.559 34.861,11.129 37.855,11.129C40.829,11.132 43.275,13.58 43.275,16.554L43.275,16.559C43.275,17.999 42.703,19.379 41.687,20.399C40.672,21.416 39.292,21.989 37.855,21.989ZM16.015,0.662L16.015,6.13C8.27,2.68 -0.566,8.953 0.028,17.4C0.592,25.404 9.393,30.417 16.532,26.795C20.356,24.829 22.776,20.883 22.795,16.583L22.795,0.662C22.795,0.299 22.496,-0 22.133,-0L16.677,0C16.314,-0 16.015,0.299 16.015,0.662ZM11.461,21.989C8.487,21.986 6.041,19.538 6.041,16.564L6.041,16.559C6.041,13.559 8.468,11.129 11.461,11.129C14.435,11.132 16.881,13.58 16.881,16.554L16.881,16.559C16.854,19.524 14.426,21.957 11.461,21.989Z" style="fill:white;fill-rule:nonzero;"/>
            </g>
        </g>
    </g>
</svg>
