<?xml version="1.0" encoding="UTF-8" standalone="no"?>
<!DOCTYPE svg PUBLIC "-//W3C//DTD SVG 1.1//EN" "http://www.w3.org/Graphics/SVG/1.1/DTD/svg11.dtd">
<svg width="100%" height="100%" viewBox="0 0 2235 878" version="1.1" xmlns="http://www.w3.org/2000/svg" xmlns:xlink="http://www.w3.org/1999/xlink" xml:space="preserve" xmlns:serif="http://www.serif.com/" style="fill-rule:evenodd;clip-rule:evenodd;stroke-linejoin:round;stroke-miterlimit:2;">
    <g opacity="0.3">
        <path id="path4" d="M33.625,0C47.448,1.378 58.94,14.054 58.74,27.978C58.84,64.989 58.74,101.998 58.79,139.009C69.46,133.349 80.98,129.269 92.93,127.418C101.85,125.939 110.93,125.939 119.95,125.978L362.971,125.978C372.321,125.978 381.721,125.779 391.001,127.089C413.281,130.288 434.63,140.468 450.711,156.289C470.711,175.308 483.002,202.339 483.771,229.969C483.78,278.318 483.771,326.66 483.771,375.01C483.711,381.659 484.08,388.348 483.221,394.979C481.771,407.319 478.282,419.459 472.661,430.559C458.141,460.58 428.761,482.79 395.981,488.809C383.461,491.29 370.641,490.72 357.951,490.79C275.64,490.77 193.321,490.83 111,490.759C84.85,490.849 58.63,481.379 39.09,463.909C19.02,446.52 5.72,421.45 2.83,395.029C1.91,388.389 2.26,381.678 2.21,375.01C2.19,259.669 2.24,144.338 2.18,29.008C1.27,14.683 13.101,1.258 27.344,0L33.625,0ZM2235,547.367L2235,541.151C2233.82,534.988 2229.62,529.357 2223.64,527.179C2216.16,523.89 2206.7,526.539 2201.82,533.03C2196.92,539.399 2196.86,548.97 2201.73,555.38C2207.29,563.379 2219.65,565.229 2227.45,559.449C2231.51,556.663 2234.02,552.13 2235,547.367L2235,547.367ZM87.87,187.89C71.06,195.838 59.46,213.468 58.78,232.049C58.78,282.698 58.8,333.349 58.77,383.999C59.12,404.229 72.74,423.359 91.63,430.5C99.63,433.789 108.39,434.359 116.951,434.22C201.65,434.209 286.35,434.199 371.061,434.22C381.491,434.448 392.23,432.649 401.271,427.18C416.62,418.549 426.921,401.609 427.23,383.968C427.181,332.999 427.23,282.03 427.21,231.059C426.381,216.189 418.5,202.199 406.841,193.07C401.121,189.108 394.851,185.799 388.051,184.169C380.2,182.149 372.041,182.649 364.021,182.579C279.991,182.579 195.97,182.589 111.95,182.57C103.66,182.548 95.3,184.148 87.87,187.89ZM555.881,429.959C563.151,422.489 574.861,420.239 584.62,423.519C595.411,427.059 603.411,437.588 603.741,448.98C603.801,476.019 603.76,503.059 603.771,530.1C613.521,526.8 623.691,524.539 634.021,524.42C662.672,524.409 691.311,524.42 719.961,524.42C733.692,524.55 747.681,523.509 761.091,527.21C793.851,535.179 820.411,563.719 825.961,596.99C828.301,610.21 826.951,623.689 827.311,637.03C827.291,653.01 827.341,668.99 827.291,684.979C826.261,711.31 813.721,736.73 794.322,754.42C779.512,767.8 760.171,776.74 740.021,777.02C708.341,776.99 676.671,777.01 645.002,777.01C636.621,776.94 628.15,777.47 619.902,775.71C599.231,771.83 580.911,759.18 568.261,742.62C554.61,724.859 546.811,702.49 547.21,680.04C547.181,603.369 547.221,526.71 547.192,450.049C547.221,442.569 550.26,434.979 555.881,429.959ZM632.151,581.209C619.852,582.489 608.85,591.45 605.241,603.29C603.67,608.029 603.681,613.06 603.76,617.999C603.771,637.989 603.771,657.99 603.76,677.989C603.002,691.261 608.532,704.77 618.451,713.629C622.652,717.529 628.141,720.371 633.972,720.43C668.661,720.419 703.351,720.43 738.042,720.43C743.261,720.5 748.262,718.34 752.46,715.36C762.561,708.089 769.492,696.39 770.642,683.969C770.711,659.98 770.682,635.989 770.662,611.989C770.612,601.819 765.071,591.979 756.601,586.409C750.88,582.51 743.871,580.789 737.001,581.01C702.052,581.159 667.091,580.749 632.151,581.209ZM1445.98,449.029C1446.04,435.189 1458.16,422.879 1471.91,422.149C1482.33,421.119 1493.03,426.56 1498.35,435.579C1501.47,440.45 1502.63,446.309 1502.58,452.039C1502.6,526.35 1502.57,600.669 1502.59,674.989C1502.71,684.72 1502.08,694.53 1499.6,703.97C1494.76,722.68 1484.36,739.899 1470.22,753.06C1455.04,767.22 1434.94,776.69 1413.99,777.01C1384.66,777 1355.33,777.01 1326.01,777.01C1318.31,776.92 1310.61,777.18 1302.93,776.87C1282.78,775.56 1263.71,765.65 1250.02,750.98C1235.5,735.81 1226.12,715.89 1223.26,695.12C1221.79,685.479 1222.31,675.699 1222.23,665.99C1222.24,647.959 1222.21,629.939 1222.24,611.91C1222.43,595.68 1227.07,579.5 1235.74,565.77C1250.93,541.08 1279.01,525.039 1308,524.46C1334.99,524.359 1361.98,524.449 1388.97,524.42C1408.07,524.6 1427.95,522.739 1446.03,530.319C1445.92,503.229 1446.01,476.129 1445.98,449.029L1445.98,449.029ZM1304.44,581.7C1293.34,583.749 1283.91,592.299 1280.44,602.98C1278.36,609.12 1278.8,615.67 1278.77,622.04C1278.77,641.35 1278.78,660.659 1278.76,679.981C1278.79,689.199 1281.37,698.49 1286.56,706.17C1291.45,713.771 1299.45,720.66 1308.98,720.45C1343.95,720.36 1378.93,720.52 1413.91,720.371C1427.74,718.419 1438.35,706.729 1443.29,694.23C1446.85,685.939 1445.86,676.78 1445.98,667.999C1445.97,650.01 1446.02,632.009 1445.96,614.02C1446.02,605.119 1442.68,596.03 1436.02,589.98C1430.06,583.889 1421.41,580.94 1413,580.999C1381.34,581.029 1349.68,581.01 1318.02,581.02C1313.48,581.049 1308.9,580.749 1304.44,581.7L1304.44,581.7ZM1782.43,448.989C1782.61,433.87 1796.98,420.9 1812.03,422.079C1826.56,422.299 1839.16,435.459 1839,449.97C1839.06,519.3 1839.01,588.639 1839.03,657.979C1838.83,669.479 1839.56,681.039 1838.31,692.499C1833.48,730.11 1805.48,764.69 1768.44,774.54C1756.91,777.83 1744.86,776.88 1733.04,777.01C1703.02,777.01 1673.01,777 1643.01,777.01C1622.96,776.7 1603.52,767.77 1589.32,753.77C1576.59,741.69 1567.6,725.91 1562.69,709.119C1559.52,698.369 1558.59,687.109 1558.68,675.949C1558.7,658.289 1558.68,640.629 1558.7,622.969C1558.64,612.959 1558.68,602.829 1560.98,593.039C1565.28,573.759 1576.42,556.14 1591.79,543.79C1607.04,531.519 1626.42,524.639 1645.97,524.42C1674.65,524.409 1703.34,524.42 1732.04,524.42C1743.09,524.62 1754.26,523.73 1765.23,525.64C1771.12,526.51 1776.82,528.309 1782.49,530.189C1782.37,503.12 1782.46,476.05 1782.43,448.989L1782.43,448.989ZM1644.08,581.209C1632.09,582.309 1621.09,590.83 1617.23,602.27C1614.47,609.859 1615.51,618.08 1615.31,625.99C1615.31,643.98 1615.33,661.98 1615.31,679.981C1615.28,691.73 1619.55,703.7 1627.87,712.141C1632.33,716.8 1638.36,720.559 1645.04,720.419C1679.35,720.439 1713.67,720.4 1748,720.439C1752.78,720.55 1757.53,719.01 1761.57,716.48C1774.52,708.49 1783.2,693.369 1782.44,678.039C1782.4,656.38 1782.46,634.729 1782.41,613.069C1782.4,604.6 1779,596.129 1772.86,590.27C1766.49,583.68 1757.09,580.65 1748.06,580.999C1713.4,581.17 1678.72,580.74 1644.08,581.209L1644.08,581.209ZM1912.37,528.27C1919.45,523.52 1928.73,522.429 1936.82,525.109C1944.24,527.379 1950.41,533.13 1953.69,540.109C1955.88,544.73 1956.37,549.91 1956.34,554.959C1956.31,599.659 1956.34,644.361 1956.32,689.05C1956.47,705.6 1969.61,722.7 1987.01,722.91C2018.36,723.09 2049.7,722.93 2081.07,722.99C2088.2,723.06 2095.65,723.309 2102.26,720.18C2111.4,715.71 2118.73,707.45 2121.67,697.659C2124.14,690.34 2122.95,682.54 2123.21,674.98C2123.21,633.979 2123.22,592.989 2123.21,551.999C2123.15,543.269 2127.38,534.589 2134.38,529.339C2143.2,522.59 2156.04,521.809 2165.64,527.389C2174,532.109 2179.62,541.359 2179.79,550.98C2179.79,648.98 2179.76,746.97 2179.79,844.97C2179.96,850.22 2179.87,855.63 2177.7,860.52C2173.93,870.27 2164.19,877.25 2153.8,878L2148.45,878C2138.38,876.8 2129.07,870.13 2125.34,860.63C2122.26,853.81 2123.41,846.2 2123.21,838.97C2123.24,817.01 2123.13,795.05 2123.27,773.09C2112.33,777.18 2100.75,779.59 2089.04,779.56C2059.34,779.59 2029.65,779.57 1999.97,779.57C1989.43,779.6 1978.76,779.88 1968.45,777.4C1935.79,770.17 1909.72,742.25 1902.27,709.989C1898.82,697.269 1899.8,684.01 1899.68,670.99C1899.68,631.31 1899.69,591.639 1899.68,551.959C1899.46,542.57 1904.51,533.36 1912.37,528.27L1912.37,528.27ZM395.221,533.24C400.671,527.86 408.491,525.389 416.061,525.68C431.031,525.68 446.001,525.669 460.971,525.689C468.61,525.748 476.1,529.12 481.251,534.769C488.291,542.18 490.641,553.58 487.222,563.2C483.591,574.189 472.671,582.27 461.042,582.279C445.36,582.329 429.681,582.329 413.991,582.279C405.351,582.3 396.991,577.909 391.851,571.009C383.121,560 384.741,542.559 395.221,533.239ZM906.312,526.44C919.012,523.229 933.581,530.06 938.651,542.25C940.882,546.819 941.213,551.959 941.022,556.959C940.991,599.97 941.042,642.97 941.002,685.98C940.932,692.72 941.752,699.759 945.321,705.64C950.821,715.399 961.752,721.839 972.991,721.679C1008.01,721.67 1043.03,721.73 1078.06,721.65C1094.08,721.219 1107.89,706.86 1108.17,690.91C1108.32,644.589 1108.17,598.27 1108.25,551.939C1108.8,541.159 1116.21,531.079 1126.41,527.459C1139.23,522.369 1155.14,528.279 1161.39,540.6C1165.38,547.36 1164.85,555.43 1164.8,562.98C1164.77,605.66 1164.84,648.349 1164.76,691.029C1164.59,713.221 1155.73,735.29 1140.19,751.18C1126.84,765.19 1108.74,774.61 1089.57,777.38C1080.77,778.76 1071.86,778.22 1063.01,778.32C1031.68,778.28 1000.36,778.4 969.041,778.26C938.222,777.29 908.891,758.64 894.711,731.31C887.822,718.359 884.492,703.7 884.431,689.059C884.431,644.039 884.391,599.01 884.461,553.99C884.382,541.22 893.721,529.079 906.311,526.44L906.312,526.44ZM2206.13,533.119C2201.7,537.32 2200.09,544.27 2202.39,549.959C2205.42,557.43 2214.56,561.76 2222.13,558.59C2227.92,556.589 2231.24,550.89 2232.25,545.14C2231.73,540.21 2230.14,535.019 2225.85,532.1C2220.15,527.63 2211.34,528.139 2206.13,533.119ZM-0,552.36C1.28,538.869 13.34,527.409 26.96,527.229C42.64,527.19 58.33,527.249 74.02,527.21C80.39,527.12 86.77,529.199 91.71,533.249C102.5,541.31 105.5,557.549 98.93,569.169C94.27,578.179 84.21,583.9 74.12,583.779C58.4,583.77 42.67,583.839 26.95,583.749C13.36,583.499 1.31,572.12 -0,558.629L-0,552.36ZM2208.49,534.55C2213.1,534.539 2217.82,534.099 2222.27,535.679C2225.44,539.15 2223.73,545.05 2218.93,545.81C2221.92,548.15 2223.55,551.639 2225.51,554.799C2224.08,554.75 2222.68,554.65 2221.31,554.499C2219.65,551.779 2218.02,549.029 2216.1,546.499C2214.59,546.439 2213.08,546.369 2211.63,546.299C2211.68,549.099 2211.65,551.909 2211.68,554.72C2210.57,554.669 2209.5,554.639 2208.45,554.619C2208.6,547.93 2208.57,541.24 2208.49,534.55L2208.49,534.55ZM2211.66,537.449C2211.63,539.43 2211.63,541.409 2211.63,543.4C2214.09,543.319 2216.57,543.26 2219.07,543.179C2219.86,541.91 2220.9,540.549 2220.26,538.959C2218.23,536.419 2214.45,537.839 2211.66,537.449L2211.66,537.449ZM126.101,799.22C128.37,798.72 130.69,798.66 133.011,798.66C148.01,798.69 163.02,798.66 178.02,798.67C185.451,798.62 192.821,801.67 198.03,806.98C208.09,816.72 208.881,834.14 199.91,844.87C194.5,851.71 185.74,855.46 177.08,855.34C162.4,855.31 147.71,855.33 133.03,855.32C127.43,855.35 121.72,854.12 116.99,851.02C107.24,845.21 101.96,833.03 104.101,821.91C105.931,810.75 115.02,801.41 126.101,799.22ZM304.111,799.24C308.01,798.47 312,798.68 315.951,798.67C329.961,798.73 343.97,798.56 357.971,798.77C371.58,799.41 383.501,811.38 384,825.01C384.872,835.37 379.44,846.07 370.41,851.28C365.541,854.31 359.711,855.41 354.04,855.34C339.37,855.29 324.7,855.35 310.03,855.31C300.441,855.37 290.941,850.31 285.89,842.12C282.141,836.58 281.15,829.61 281.81,823.06C283.3,811.5 292.581,801.36 304.111,799.24Z" style="fill:white;"/>
        <path id="path6" d="M134.15,270.07C142.08,266.039 151.09,264.13 159.96,265.23C178.211,266.609 194.17,281.199 197.951,298.989C199.781,309.299 198.821,320.389 193.47,329.569C192.09,332.999 188.63,335.299 188.001,338.999C186.171,339.18 184.791,340.35 183.5,341.549C175.801,348.519 165.29,352.06 154.96,351.808C144,352.069 133.34,347.27 125.31,339.999C115.9,330.72 110.48,317.209 112.16,303.959C113.25,289.839 122.11,277.198 134.15,270.07ZM327.231,265.329C338.051,263.669 349.441,266.479 358.391,272.75C365.381,278.18 371.42,285.209 374.131,293.779C377.341,302.14 376.931,311.409 375.312,320.079C375.34,321.289 373.791,321.738 373.881,322.95C371.171,332.549 364.06,340.449 355.66,345.609C346.52,351.529 335.08,352.949 324.491,351.139C313.271,348.789 302.81,342.07 296.73,332.249C290.781,323.449 288.521,312.45 290.081,301.978C292.371,283.279 308.571,267.489 327.231,265.329ZM135.51,547.44C151.301,533.79 172.161,526.51 192.96,526.48C225.65,526.519 258.331,526.46 291.02,526.519C301.881,526.209 312.82,527.49 323.201,530.74C343.54,537.23 361.33,551.45 372.06,569.909C380.641,583.97 384.78,600.619 384.261,617.05C384.241,629.049 384.27,641.039 384.27,653.029C383.691,666.709 371.74,678.719 358.021,679.26C292.2,679.53 226.38,679.05 160.57,679.51C160.751,685.38 160.14,691.38 161.72,697.12C164.19,707.76 172.63,716.81 183.099,719.95C186.64,720.93 190.291,721.559 193.97,721.541C224.311,721.519 254.65,721.53 285,721.53C291.311,721.33 297.771,722.19 303.941,720.439C310.72,718.64 316.95,714.619 321.26,709.08C326.891,702.77 335.601,699.57 343.98,700.23C356.511,700.42 367.45,710.769 369.781,722.829C371.311,730.45 369.521,738.74 364.84,744.96C349.06,765.25 323.731,777.57 298.06,777.85C268.35,778.1 238.65,778.01 208.951,777.97C200.951,777.89 192.94,778.02 184.951,777.58C155.021,775.38 126.99,756.42 113.74,729.5C106.74,715.82 103.62,700.289 104.28,684.959L104.28,622.96C104.36,616.649 103.99,610.29 104.92,604.03C107.57,582.25 118.54,561.41 135.51,547.44L135.51,547.44ZM180.05,585.73C171.771,588.95 165.62,596.23 162.52,604.42C160.491,610.22 160.53,616.45 160.611,622.52C216.291,622.859 271.991,622.44 327.671,622.73C327.661,618.58 327.86,614.42 327.59,610.269C325.73,596.841 314.36,585.419 300.941,583.49C295.65,583.01 290.321,583.21 285.02,582.85C255.68,582.81 226.33,582.87 196.981,582.81C191.251,582.92 185.33,583.26 180.05,585.73Z" style="fill:white;"/>
    </g>
</svg>
