<?xml version="1.0" encoding="UTF-8" standalone="no"?>
<!DOCTYPE svg PUBLIC "-//W3C//DTD SVG 1.1//EN" "http://www.w3.org/Graphics/SVG/1.1/DTD/svg11.dtd">
<svg width="100%" height="100%" viewBox="0 0 1772 627" version="1.1" xmlns="http://www.w3.org/2000/svg" xmlns:xlink="http://www.w3.org/1999/xlink" xml:space="preserve" xmlns:serif="http://www.serif.com/" style="fill-rule:evenodd;clip-rule:evenodd;stroke-linejoin:round;stroke-miterlimit:2;">
    <g transform="matrix(0.775871,0,0,0.775871,-2223.95,-643.408)">
        <g opacity="0.3">
            <g id="Laag-1" serif:id="Laag 1" transform="matrix(4.16667,0,0,4.16667,2775,0)">
                <g>
                    <g transform="matrix(1,0,0,1,131.252,284.831)">
                        <path d="M0,22.338C-0.066,22.134 -12.175,-21.766 -17.513,-41.015L273.889,-41.015C295.582,-41.015 321.357,-26.417 329.121,0.147C329.204,0.433 344.635,56.168 346.637,63.36L54.279,63.36C32.175,63.36 7.512,48.027 0,22.338M377.304,86.245L351.279,-6.187L351.279,-6.191C340.679,-42.653 305.971,-64.056 273.921,-64.056L-47.808,-64.056L-22.163,28.537L-22.163,28.681C-11.509,65.461 23.225,86.042 53.479,86.394L377.304,86.245Z" style="fill:white;fill-rule:nonzero;"/>
                    </g>
                    <g transform="matrix(1,0,0,1,177.988,256.607)">
                        <path d="M0,71.306L10.208,71.306L10.208,28.346L22.088,28.346L22.088,20.533L10.208,20.533L10.208,13.822C10.208,10.716 11.315,9.617 14.613,9.617L22.088,9.617L22.088,0L13.813,0C5.905,0 0,4.308 0,13.822L0,20.533L-11.696,20.533L-9.47,28.346L0,28.346L0,71.306Z" style="fill:white;"/>
                    </g>
                    <g transform="matrix(1,0,0,1,212.958,294.762)">
                        <path d="M0,16.126C0,27.643 9.015,33.748 17.025,33.748C22.338,33.748 26.948,31.745 30.144,27.74L30.348,27.74L30.348,33.151L40.557,33.151L40.557,-17.622L30.348,-17.622L30.348,12.619C30.348,19.53 26.032,23.535 20.327,23.535C14.523,23.535 10.217,19.53 10.217,12.619L10.217,-17.622L0,-17.622L0,16.126Z" style="fill:white;"/>
                    </g>
                    <g transform="matrix(1,0,0,1,271.594,276.535)">
                        <path d="M0,51.378L10.218,51.378L10.218,21.136C10.218,14.222 14.517,10.216 20.337,10.216C26.05,10.216 30.35,14.222 30.35,21.136L30.35,51.378L40.558,51.378L40.558,17.63C40.558,6.109 31.55,0 23.638,0C18.228,0 13.617,2.002 10.413,6.011L10.218,6.011L10.218,0.605L0,0.605L0,51.378Z" style="fill:white;"/>
                    </g>
                    <g transform="matrix(1,0,0,1,347.428,298.365)">
                        <path d="M0,-11.614C9.523,-11.614 10.021,-3.199 10.021,4.112C10.021,11.521 9.523,19.931 0,19.931C-9.604,19.931 -10.102,12.023 -10.102,4.112C-10.102,-3.702 -9.604,-11.614 0,-11.614M10.021,29.548L20.237,29.548L20.237,-41.758L10.021,-41.758L10.021,-15.819C6.22,-19.427 2.117,-21.831 -3.089,-21.831C-9.293,-21.831 -13.806,-19.024 -16.714,-15.218C-19.51,-11.614 -20.318,-8.308 -20.318,4.112C-20.318,16.63 -19.51,19.931 -16.714,23.54C-13.806,27.348 -9.293,30.144 -3.089,30.144C2.117,30.144 6.816,27.745 10.021,24.235L10.021,29.548Z" style="fill:white;"/>
                    </g>
                    <g transform="matrix(1,0,0,1,412.147,294.958)">
                        <path d="M0,15.129C0,23.041 -2.902,23.94 -11.42,23.94C-18.333,23.94 -21.04,20.94 -21.04,17.531C-21.04,13.829 -18.228,11.422 -12.22,11.422L0,11.422L0,15.129ZM0,32.955L10.209,32.955L10.209,-1.697C10.209,-14.214 1.609,-18.423 -10.912,-18.423C-18.522,-18.423 -24.145,-16.421 -28.044,-11.01L-20.033,-4.9C-18.228,-7.802 -15.719,-8.803 -10.414,-8.803C-3.107,-8.803 0,-7.103 0,-2.297L0,3.016L-14.124,3.016C-25.028,3.016 -30.644,9.922 -30.644,18.034C-30.644,26.846 -24.039,33.552 -12.719,33.552C-5.812,33.552 -2.298,31.953 -0.197,28.447L0,28.447L0,32.955Z" style="fill:white;"/>
                    </g>
                </g>
            </g>
        </g>
    </g>
</svg>
