<?xml version="1.0" encoding="UTF-8" standalone="no"?>
<!DOCTYPE svg PUBLIC "-//W3C//DTD SVG 1.1//EN" "http://www.w3.org/Graphics/SVG/1.1/DTD/svg11.dtd">
<svg width="100%" height="100%" viewBox="0 0 696 113" version="1.1" xmlns="http://www.w3.org/2000/svg" xmlns:xlink="http://www.w3.org/1999/xlink" xml:space="preserve" xmlns:serif="http://www.serif.com/" style="fill-rule:evenodd;clip-rule:evenodd;stroke-linejoin:round;stroke-miterlimit:2;">
    <g transform="matrix(1,0,0,1,-42.9979,0)">
        <g transform="matrix(8.02818,0,0,8.02818,-45,0)">
            <g opacity="0.3">
                <path d="M82.54,0L93.85,2.537C96.022,3.031 97.54,4.897 97.54,7.077L97.54,14L94.25,14L94.25,7.077C94.25,6.401 93.779,5.822 93.105,5.669L85.823,3.986L85.83,14L82.54,14L82.54,0ZM73.388,0L73.388,14L70.098,14L70.098,4.017L68.122,4.466C66.651,4.798 65.125,4.798 63.654,4.466L61.678,4.017L61.678,14L58.388,14L58.388,0L64.398,1.335C65.379,1.556 66.397,1.556 67.378,1.335L73.388,0ZM38.24,0L42.17,5.367C42.373,5.643 42.56,5.927 42.735,6.217C42.91,5.927 43.098,5.643 43.3,5.367L47.24,0L51.235,0L45.903,7.265C44.89,8.638 44.345,10.302 44.348,12.008L44.348,14L41.123,14L41.123,12.008C41.126,10.301 40.58,8.638 39.567,7.265L34.235,0L38.24,0ZM14.251,0L14.251,6.361C14.381,6.321 14.515,6.284 14.651,6.253L21.526,4.696C22.188,4.556 22.667,3.968 22.671,3.291L22.671,0L25.961,0L25.961,14L22.671,14L22.671,7.711C22.541,7.753 22.407,7.789 22.271,7.82L15.395,9.377C14.733,9.517 14.254,10.105 14.25,10.782L14.25,14L10.961,14L10.961,0L14.251,0Z" style="fill:rgb(235,235,235);"/>
            </g>
        </g>
    </g>
</svg>
