<?xml version="1.0" encoding="UTF-8" standalone="no"?>
<!DOCTYPE svg PUBLIC "-//W3C//DTD SVG 1.1//EN" "http://www.w3.org/Graphics/SVG/1.1/DTD/svg11.dtd">
<svg width="100%" height="100%" viewBox="0 0 455 135" version="1.1" xmlns="http://www.w3.org/2000/svg" xmlns:xlink="http://www.w3.org/1999/xlink" xml:space="preserve" xmlns:serif="http://www.serif.com/" style="fill-rule:evenodd;clip-rule:evenodd;stroke-linejoin:round;stroke-miterlimit:2;">
    <g id="Artboard1" transform="matrix(1,0,0,1,12,14)">
        <g opacity="0.3">
            <rect x="-12" y="-14" width="455" height="135" style="fill:none;"/>
            <g transform="matrix(1.10628,0,0,1.10511,-22.5961,-4.90112)">
                <g id="Layer_1">
                    <g id="g9">
                        <g id="g11">
                            <path id="path13" d="M22.854,29.238C25.503,29.238 27.349,29.799 28.495,30.945C29.778,32.228 30.352,34.346 30.352,37.814L30.352,81.121C30.352,87.113 29.096,89.786 21.682,89.786L20.665,89.786L20.665,92.444L53.984,92.444L53.984,89.8L52.979,89.786C45.635,89.698 44.397,87.041 44.397,81.121L44.397,37.811C44.397,34.355 44.969,32.245 46.251,30.965C47.409,29.801 49.287,29.236 51.991,29.236L53.982,29.236L53.982,26.541L20.665,26.541L20.665,29.236L22.854,29.236L22.854,29.238Z" style="fill:white;"/>
                            <path id="path15" d="M129.418,70.352C129.418,70.352 128.839,67.648 128.756,66.134L128.756,46.354C128.626,34.819 130.199,29.077 120.114,29.121L120.114,26.53L143.313,26.53L143.313,29.121C132.927,29.08 134.234,34.822 134.174,46.354L134.174,92.541L130.872,92.506L80.776,40.08C80.776,40.08 81.339,42.779 81.423,44.295L81.423,76.685C81.139,88.502 82.602,89.929 90.214,89.791L90.214,92.49L66.029,92.49L66.029,89.791C73.652,89.8 75.151,88.785 75.142,75.722L75.142,76.503L75.142,44.581L75.08,39.514C75.364,32.956 72.942,29.152 65.548,29.214L65.548,26.62L87.814,26.62L129.418,70.352Z" style="fill:white;"/>
                            <path id="path17" d="M213.396,25.271L210.84,25.271L210.721,26.147C210.547,27.454 210.033,29.643 208.543,29.643C208.119,29.643 207.06,29.443 205.868,28.897C200.689,26.653 193.979,25.271 188.33,25.271C177.336,25.271 167.364,29.209 160.24,36.364C153.697,42.937 150.118,51.885 150.168,61.554C150.215,70.816 153.856,78.434 161.309,84.856C168.818,91.28 177.231,94.019 189.456,94.019C199.64,94.019 205.47,92.556 214.417,87.754L215.984,86.904L215.984,69.623C215.984,62.258 216.886,61.112 222.878,60.87L223.853,60.832L223.853,58.265L194.575,58.265L194.575,60.832L195.55,60.87C202.225,61.129 203.485,62.326 203.485,68.416L203.485,84.429C198.533,87.696 194.934,88.937 190.395,88.937C183.679,88.937 177.701,86.341 173.112,81.756C167.738,76.377 165.115,68.543 165.115,59.69C165.115,50.153 167.654,42.018 172.886,36.791C177.05,32.626 182.581,30.314 188.891,30.314C194.527,30.314 201.074,32.732 205.564,36.293C209.216,39.283 211.111,42.176 212.541,46.957L212.758,47.681L215.258,47.681L213.396,25.271Z" style="fill:white;"/>
                        </g>
                        <g id="g19">
                            <path id="path155" d="M330.678,92.121L341.663,92.121C343.289,91.874 345.018,91.914 346.314,90.717C351.814,91.564 357.391,90.204 361.714,87.179C363.995,85.336 366.046,83.206 367.702,80.881C369.163,78.83 370.318,76.914 371.064,74.62C371.618,73.201 372.058,71.729 372.39,70.213C373.959,63.078 373.136,55.099 370.817,48.305C370.386,47.045 369.904,45.83 369.374,44.664C366.475,38.672 362.532,32.208 356.451,28.415C353.026,26.279 349.878,22.975 347.944,19.56C346.892,18.61 345.883,17.356 344.525,17.129C344.897,17.747 345.306,18.344 345.412,19.063L345.328,19.166C343.889,19.208 342.754,18.447 341.766,17.516L342.86,16.531C342.446,16.326 341.973,16.24 341.52,16.141C337.36,15.668 333.943,17.58 330.26,18.509L330.199,18.713C332.46,19.721 332.933,22.211 334.253,23.903C334.583,23.509 335.14,23.797 335.591,23.756C336.249,23.797 336.867,24.27 337.503,24.105C337.525,23.551 337.219,23.12 337.113,22.627C337.503,22.438 337.98,22.605 338.411,22.627C339.604,23.324 341.52,22.499 342.261,24.105C340.902,24.191 339.626,24.475 338.35,24.785C338.431,25.3 338.946,25.714 338.906,26.228C337.813,25.771 336.662,25.489 335.446,25.342L335.389,25.524C336.933,27.337 339.049,28.409 341.212,29.049C344.321,29.768 347.057,28.288 350.06,28.802C357.437,32.179 363.733,39.904 366.475,47.234C366.609,47.586 366.736,47.942 366.86,48.301C369.154,54.996 369.588,63.23 367.291,70.209C366.068,73.117 364.721,75.854 362.563,78.219C361.747,79.22 360.843,80.115 359.861,80.876C356.77,83.283 352.96,84.341 349.035,83.261C348.791,83.101 348.292,83.057 348.373,82.625C348.512,82.053 348.639,81.468 348.751,80.876C349.405,77.526 349.702,74.006 349.53,70.49C349.521,70.338 349.519,70.187 349.513,70.037C349.297,64.929 348.278,60.333 346.4,55.915C345.198,53.379 343.766,50.613 341.964,48.129C339.815,45.168 337.144,42.61 333.717,41.334C331.616,40.777 329.02,40.676 327.438,42.427C326.303,43.415 325.832,44.752 325.995,46.213C324.224,47.34 322.233,47.947 320.066,48.129C319.535,48.176 318.99,48.367 318.442,48.365C317.916,48.389 317.404,48.365 316.909,48.301C314.295,47.98 311.659,46.578 309.655,44.966C309.613,43.901 309.55,42.887 309.51,41.758C308.359,41.16 307.413,40.025 307.33,38.689L307.435,38.586C308.093,38.79 308.67,39.12 309.264,39.472C308.995,37.866 308.689,36.28 307.886,34.881C307.145,34.571 306.399,34.327 305.702,33.953C304.899,33.418 304.384,32.45 304.265,31.563C304.982,32.267 306.239,32.019 306.795,32.76C305.829,29.898 305.807,26.624 304.221,24.009C303.418,22.073 301.317,21.188 299.876,19.765C299.32,19.087 299.095,18.141 298.085,18.036C297.263,17.831 297.199,16.903 297.056,16.309C297.571,16.368 298.002,16.72 298.437,16.801C297.241,13.629 296.191,10.111 292.959,8.094L292.403,8.441C291.149,8.631 289.809,8.71 288.553,8.752C289.109,7.927 290.097,7.579 290.88,7.205C289.972,6.527 289.228,6.362 288.093,6.175C287.435,6.838 286.247,7.163 285.402,7.348L285.301,7.269C285.279,6.53 285.108,5.619 286.221,5.436C285.152,4.921 283.381,5.126 282.287,5.436C281.977,6.239 281.099,6.959 281.156,7.905C280.523,8.567 280.07,9.449 279.407,9.924C279.39,8.338 280.061,6.875 280.351,5.54C279.425,5.887 278.483,6.38 277.579,6.816C276.116,5.971 274.576,5.126 273.014,4.49C272.869,4.426 272.559,4.365 272.62,4.631C273.958,5.599 273.441,7.41 273.584,8.791L272.739,8.094C272.328,7.042 271.138,6.281 270.935,5.126C269.534,5.394 268.638,5.766 267.34,6.323L267.16,6.424C268.126,6.424 268.949,7.185 269.424,7.946C267.963,8.03 266.665,7.451 265.226,7.311C265.081,7.165 264.96,7 264.729,7.022C264.007,7.291 263.394,7.806 262.753,8.301C261.334,9.698 259.891,11.246 259.214,13.097C259.689,13.18 260.285,13.16 260.635,13.449C259.856,13.922 259.174,14.725 258.411,15.178C258.144,16.249 258.184,17.464 258.122,18.638C257.526,19.543 256.723,20.346 256.332,21.353C255.056,25.491 254.726,30.083 254.913,34.778C254.499,35.167 253.962,35.42 253.575,35.726L253.617,39.926L253.718,39.926C253.907,39.039 254.957,38.546 255.592,37.95L255.799,37.95C255.698,38.896 255.573,39.842 255.553,40.812L254.358,41.8C253.168,42.849 254.176,44.431 254.07,45.749C254.156,46.101 254.213,46.616 254.466,46.699C254.607,46.185 255.06,45.813 255.346,45.362C255.861,45.234 256.312,44.825 256.785,44.763C256.523,45.791 256.171,46.801 255.755,47.788C255.559,47.918 255.326,48.096 255.128,48.303C254.919,48.53 254.752,48.789 254.712,49.069C255.636,53.948 257.093,58.764 258.763,63.356C257.627,65.267 256.987,67.525 256.043,69.502C255.909,69.78 255.788,70.059 255.674,70.347C254.728,72.743 254.44,75.416 253.263,77.719C252.79,77.387 252.277,77.141 251.742,76.914C249.514,76.175 246.942,76.648 245.318,78.355C243.875,78.087 242.392,78.333 241.257,79.094C240.448,79.706 239.818,80.441 239.46,81.301C239.218,81.897 239.101,82.546 239.141,83.257C238.212,83.895 237.717,84.883 237.412,85.87C236.978,88.097 237.759,90.409 239.035,92.118L330.678,92.118L330.678,92.121Z" style="fill:rgb(41,41,44);"/>
                            <g>
                                <path id="path157" d="M370.817,48.308C370.386,47.047 369.904,45.833 369.374,44.667C366.475,38.674 362.532,32.21 356.451,28.417C353.026,26.281 349.878,22.977 347.944,19.562C346.892,18.612 345.883,17.358 344.525,17.131C344.897,17.75 345.306,18.346 345.412,19.065L345.328,19.169C343.889,19.21 342.754,18.449 341.766,17.519L342.86,16.533C342.446,16.328 341.973,16.243 341.52,16.144C337.36,15.671 333.943,17.582 330.26,18.511L330.199,18.715C332.46,19.723 332.933,22.213 334.253,23.905C334.583,23.511 335.14,23.8 335.591,23.758C336.249,23.8 336.867,24.273 337.503,24.108C337.525,23.553 337.219,23.122 337.113,22.629C337.503,22.44 337.98,22.607 338.411,22.629C339.604,23.327 341.52,22.502 342.261,24.108C340.902,24.193 339.626,24.477 338.35,24.787C338.431,25.302 338.946,25.716 338.906,26.231C337.813,25.773 336.662,25.491 335.446,25.344L335.389,25.527C336.933,27.339 339.049,28.411 341.212,29.051C344.321,29.77 347.057,28.29 350.06,28.805C357.437,32.182 363.733,39.906 366.475,47.236C366.609,47.588 366.736,47.945 366.86,48.303C369.154,54.998 369.588,63.232 367.291,70.211C366.068,73.119 364.721,75.856 362.563,78.221C361.747,79.222 360.843,80.117 359.861,80.879C356.77,83.285 352.96,84.344 349.035,83.263C348.791,83.103 348.292,83.059 348.373,82.628C348.512,82.056 348.639,81.47 348.751,80.879C349.405,77.528 349.702,74.008 349.53,70.492C349.521,70.341 349.519,70.189 349.513,70.039C349.297,64.931 348.278,60.335 346.4,55.917C345.198,53.381 343.766,50.615 341.964,48.132C339.815,45.17 337.144,42.612 333.717,41.336C331.616,40.779 329.02,40.678 327.438,42.429C326.303,43.417 325.832,44.755 325.995,46.215C324.224,47.342 322.233,47.949 320.066,48.132C319.535,48.178 318.99,48.369 318.442,48.367C317.916,48.391 317.404,48.367 316.909,48.303C314.295,47.982 311.659,46.581 309.655,44.968C309.613,43.903 309.55,42.889 309.51,41.76C308.359,41.162 307.413,40.027 307.33,38.691L307.435,38.588C308.093,38.793 308.67,39.123 309.264,39.475C308.995,37.869 308.689,36.282 307.886,34.883C307.145,34.573 306.399,34.329 305.702,33.955C304.899,33.42 304.384,32.452 304.265,31.566C304.982,32.27 306.239,32.021 306.795,32.762C305.829,29.9 305.807,26.627 304.221,24.011C303.418,22.075 301.317,21.19 299.876,19.767C299.32,19.089 299.095,18.143 298.085,18.038C297.263,17.833 297.199,16.905 297.056,16.311C297.571,16.37 298.002,16.722 298.437,16.804C297.241,13.631 296.191,10.113 292.959,8.096L292.403,8.444C291.149,8.633 289.809,8.712 288.553,8.754C289.109,7.929 290.097,7.581 290.88,7.207C289.972,6.53 289.228,6.365 288.093,6.178C287.435,6.84 286.247,7.165 285.402,7.35L285.301,7.271C285.279,6.532 285.108,5.621 286.221,5.438C285.152,4.924 283.381,5.128 282.287,5.438C281.977,6.241 281.099,6.961 281.156,7.907C280.523,8.569 280.07,9.451 279.407,9.926C279.39,8.34 280.061,6.877 280.351,5.542C279.425,5.889 278.483,6.382 277.579,6.818C276.116,5.973 274.576,5.128 273.014,4.492C272.869,4.429 272.559,4.367 272.62,4.633C273.958,5.601 273.441,7.412 273.584,8.793L272.739,8.096C272.328,7.044 271.138,6.283 270.935,5.128C269.534,5.397 268.638,5.768 267.34,6.325L267.16,6.426C268.126,6.426 268.949,7.187 269.424,7.949C267.963,8.032 266.665,7.454 265.226,7.313C265.081,7.168 264.96,7.003 264.729,7.025C264.007,7.293 263.394,7.808 262.753,8.303C261.334,9.7 259.891,11.249 259.214,13.099C259.689,13.182 260.285,13.163 260.635,13.451C259.856,13.924 259.174,14.727 258.411,15.18C258.144,16.251 258.184,17.466 258.122,18.641C257.526,19.545 256.723,20.348 256.332,21.355C255.056,25.494 254.726,30.085 254.913,34.78C254.499,35.169 253.962,35.422 253.575,35.728L253.617,39.928L253.718,39.928C253.907,39.041 254.957,38.548 255.592,37.952L255.799,37.952C255.698,38.898 255.573,39.844 255.553,40.814L254.358,41.802C253.168,42.852 254.176,44.433 254.07,45.751C254.156,46.103 254.213,46.618 254.466,46.702C254.607,46.187 255.06,45.815 255.346,45.364C255.861,45.236 256.312,44.827 256.785,44.766C256.523,45.793 256.171,46.803 255.755,47.791C255.559,47.92 255.326,48.099 255.128,48.305C254.919,48.532 254.752,48.792 254.712,49.071C255.636,53.951 257.093,58.766 258.763,63.358C257.627,65.27 256.987,67.527 256.043,69.505C255.909,69.782 255.788,70.061 255.674,70.349C254.728,72.745 254.44,75.418 253.263,77.722C252.79,77.389 252.277,77.143 251.742,76.916C249.514,76.177 246.942,76.65 245.318,78.357C243.875,78.089 242.392,78.335 241.257,79.097C240.448,79.708 239.818,80.443 239.46,81.303C239.218,81.899 239.101,82.548 239.141,83.259C238.212,83.897 237.717,84.885 237.412,85.873C236.978,88.099 237.759,90.411 239.035,92.121L275.417,92.121C274.882,91.485 274.387,90.598 274.013,89.837C273.234,88.66 273.769,86.995 273.685,85.635C274.427,84.139 275.179,82.634 276.026,81.171C276.198,80.876 276.369,80.588 276.545,80.302L278.215,79.664C279.099,79.664 279.843,79.026 280.686,79.251C281.819,80.386 281.819,78.12 282.912,78.016C285.464,77.686 287.996,77.933 289.435,80.095C289.435,80.384 289.893,80.384 289.787,80.652C289.457,80.751 289.147,80.546 288.799,80.546C287.235,80.157 285.4,79.165 283.858,80.051C283.799,80.421 283.719,80.797 283.645,81.167C283.568,81.561 283.497,81.946 283.464,82.315C284.472,82.603 285.317,83.325 286.078,84.106C286.593,83.098 287.684,82.645 288.652,82.315C289.497,82.5 290.423,82.522 291.125,83.057C292.423,84.253 291.782,86.291 291.661,87.813C292.832,88.471 294.13,88.845 295.322,89.481C294.766,89.98 294.029,90.182 293.349,90.431L291.373,90.037C291.147,89.874 290.753,89.874 290.671,89.586C290.014,90.284 289.211,91.212 288.799,92.116L317.003,92.116C316.631,91.271 316.2,90.614 315.685,89.833C315.107,88.596 315.338,86.907 315.274,85.589L317.91,81.574C319.348,81.554 320.979,81.017 322.541,81.286C322.62,81.25 322.695,81.211 322.767,81.165C323.416,80.716 323.614,79.673 324.58,79.803C326.307,79.332 327.627,80.115 328.925,80.896C328.881,81 328.839,81.09 328.793,81.165C328.25,82.034 327.233,81.063 326.492,81.325C326.182,81.655 326.637,82.045 326.696,82.419C326.965,82.786 326.428,82.744 326.245,82.808C325.814,82.87 325.341,82.766 325.009,82.419C324.928,82.313 324.989,82.192 324.826,82.172C324.452,82.786 323.918,83.345 323.775,84.044C324.246,84.5 324.884,84.951 325.112,85.529C325.585,86.209 324.741,86.722 324.578,87.32C324.516,87.441 324.327,87.441 324.268,87.32C323.832,87.074 323.465,86.453 322.989,86.616C322.576,88.451 323.132,90.284 322.886,92.116C323.689,92.305 324.635,92.074 325.5,92.116L325.852,88.244C326.219,85.734 327.706,83.633 329.455,81.715C331.345,80.423 332.564,82.975 333.961,83.86C334.19,83.901 334.108,84.148 334.207,84.291C334.187,84.704 333.756,84.867 333.468,84.993C332.601,85.298 331.963,84.352 331.429,83.796C330.916,84.352 330.687,85.092 330.091,85.527L330.296,85.587C330.98,86.269 331.633,86.988 331.783,87.894C331.699,88.715 331.288,89.518 330.544,89.934C329.992,88.983 329.537,87.934 329.169,86.966C329.189,87.01 329.145,87.028 329.105,87.072C327.97,87.377 327.669,88.653 327.48,89.685C327.541,90.695 326.78,91.106 326.982,92.114L341.665,92.114C343.291,91.868 345.02,91.907 346.316,90.71C351.816,91.557 357.393,90.198 361.716,87.173C363.997,85.329 366.048,83.2 367.704,80.874C369.165,78.824 370.32,76.908 371.066,74.613C371.62,73.194 372.06,71.722 372.393,70.206C373.959,63.078 373.136,55.099 370.817,48.308Z" style="fill:white;"/>
                                <path id="path159" d="M276.336,86.522C277.139,86.007 278.437,85.881 278.62,84.689C278.294,84.44 278.004,84.13 277.632,84.049L276.787,84.295C276.849,83.8 277.117,83.246 277.287,82.711L280.001,81.827C279.627,83.061 279.487,84.605 279.361,86.027C279.608,88.128 279.918,90.372 280.989,92.121L278.063,92.121C277.735,90.187 275.714,88.783 276.336,86.522Z" style="fill:white;"/>
                                <path id="path161" d="M282.659,84.049L282.822,84.049L284.795,85.842L285.083,85.78C284.923,87.881 284.817,89.94 284.795,92.121L282.657,92.121C282.221,90.083 281.502,87.941 281.585,85.741C281.955,85.184 282.201,84.482 282.659,84.049Z" style="fill:white;"/>
                                <path id="path163" d="M287.061,86.029C287.455,85.516 287.618,84.647 288.399,84.548C288.955,84.564 289.47,84.647 289.886,85.041C290.605,85.945 289.901,87.102 289.64,88.007C289.349,89.386 288.852,90.825 288.401,92.123L286.322,92.123L287.061,86.029Z" style="fill:white;"/>
                                <path id="path165" d="M318.295,85.389C318.748,85.967 318.891,86.748 319.571,87.263C320.169,86.44 320.312,85.162 320.024,84.113L319.428,83.514C320.191,83.332 320.992,83.268 321.755,83.125C321.425,84.216 320.803,85.204 320.91,86.48C320.93,88.334 321.238,90.189 321.403,92.121L319.139,92.121C318.317,90.308 317.492,88.581 317.553,86.48C317.8,86.108 317.965,85.675 318.295,85.389Z" style="fill:white;"/>
                            </g>
                            <g>
                                <path id="path167" d="M328.034,45.83C328.012,46.365 327.623,46.959 327.97,47.417C328.47,46.86 329.29,46.88 329.95,46.633C331.783,46.466 333.532,47.045 335.239,47.458C334.808,46.776 334.52,46.015 334.044,45.399C333.096,45.151 331.655,45.811 331.492,44.407C330.916,43.914 330.012,44.266 329.413,44.306C328.835,44.717 328.364,45.232 328.034,45.83Z" style="fill:rgb(41,41,44);"/>
                                <path id="path169" d="M265.107,28.05C265.099,28.046 265.09,28.037 265.077,28.028C265.077,28.037 265.081,28.041 265.081,28.05L265.107,28.05Z" style="fill:rgb(41,41,44);"/>
                                <path id="path171" d="M272.594,46.354L273.83,45.162C273.936,45.162 274.017,45.181 274.077,45.261L273.976,47.546C274.572,48.103 275.309,48.286 276.092,48.33C276.156,47.714 276.629,47.278 276.897,46.743C277.124,46.312 276.981,45.674 277.432,45.368L277.577,45.509C277.718,46.191 277.678,46.952 278.03,47.546C278.072,47.876 278.129,48.286 278.169,48.576C279.077,48.618 279.902,48.371 280.6,48.039C280.558,47.258 280.829,46.62 280.947,45.903C281.137,45.654 280.721,45.199 281.236,45.221C281.526,45.839 282.039,46.475 282.329,47.137C283.521,45.923 284.021,44.339 284.302,42.689C283.955,42.218 283.42,42.218 283.004,41.908C279.506,40.777 275.021,40.55 271.644,42.299C271.417,43.694 271.705,45.239 272.594,46.354Z" style="fill:rgb(41,41,44);"/>
                                <path id="path173" d="M239.871,84.99C239.746,86.577 239.871,88.064 239.972,89.63C240.302,90.145 240.903,90.743 241.499,90.781L241.6,89.729C241.847,88.268 241.066,86.717 241.891,85.481C242.467,85.664 243.044,85.954 243.539,86.22C243.785,84.863 243.433,83.274 242.135,82.449L239.871,84.99Z" style="fill:rgb(41,41,44);"/>
                                <path id="path175" d="M244.958,82.764C244.155,85.175 243.558,88.143 244.526,90.682C245.083,90.308 245.657,89.958 246.15,89.445C246.049,87.507 245.78,85.444 246.933,83.833C247.941,84.143 248.623,85.111 249.01,86.055C249.694,85.193 249.919,83.996 249.652,82.848C249.694,81.939 248.665,82.148 248.17,81.776C248.332,81.013 248.31,80.133 249.116,79.697L246.647,79.944C246.009,80.852 245.31,81.732 244.958,82.764Z" style="fill:rgb(41,41,44);"/>
                                <path id="path177" d="M250.044,89.879C250.147,90.061 250.044,90.394 250.253,90.435C250.559,88.704 251.958,87.584 252.724,86.057C253.091,85.549 253.073,84.823 253.67,84.434C254.47,84.434 255.049,85.01 255.832,85.072C256.079,85.259 255.705,85.424 255.685,85.628C255.522,87.032 254.987,88.189 255.089,89.632L255.232,89.632C256.323,88.477 257.064,87.234 257.867,85.917L258.008,84.746C258.197,83.345 256.675,82.441 255.68,81.862L256.567,80.727L255.331,80.296C253.89,80.439 252.592,81.037 251.584,82.172C250.33,84.473 250.125,87.078 250.044,89.879Z" style="fill:rgb(41,41,44);"/>
                                <path id="path179" d="M255.584,77.66C256.054,77.801 256.488,77.414 256.959,77.616C258.855,78.318 260.831,79.037 262.252,80.621L263.941,84.927L264.786,82.267L264.23,80.83C263.754,79.801 262.459,79.884 261.572,79.842C261.202,79.429 261.592,78.956 261.717,78.566C262.148,77.103 260.358,77.185 259.638,76.589C259.68,75.706 258.609,76.01 258.01,75.931L257.806,75.684C257.682,75.495 257.374,75.495 257.207,75.64C257.17,75.579 257.086,75.537 257.128,75.436L256.677,75.537C256.035,76.094 255.603,76.813 255.584,77.66Z" style="fill:rgb(41,41,44);"/>
                                <path id="path181" d="M256.774,72.923C256.838,73.187 257,73.456 257.205,73.623C258.133,73.377 259.022,72.734 260.089,73.128C261.471,74.342 262.91,75.618 264.579,76.276L265.178,76.175C265.545,76.296 265.957,76.316 266.203,76.732C266.432,77.288 265.855,77.614 265.673,78.067C266.597,78.749 266.229,79.961 266.804,80.784L268.284,78.811C267.939,77.944 268.306,76.463 266.951,76.38C266.493,76.153 266.188,75.702 266.205,75.187C265.323,74.384 264.232,74.034 263.347,73.209C262.621,72.635 262.192,71.751 261.268,71.544C260.628,71.192 259.929,71.007 259.189,70.847C257.806,70.635 257.682,72.283 256.774,72.923Z" style="fill:rgb(41,41,44);"/>
                                <path id="path183" d="M258.754,68.867L259,69.263C260.03,69.199 260.954,68.748 261.964,68.765C262.641,69.177 263.528,69.155 264.227,69.507C264.784,70.27 265.382,71.13 266.201,71.645C267.871,71.892 268.795,73.689 269.371,75.002L269.371,74.367C269.617,73.48 269.349,72.448 269.026,71.645C268.612,71.234 268.011,70.968 267.582,70.6C267.499,70.332 267.56,70.204 267.644,69.96C267.004,69.28 266.058,68.908 265.275,68.372C264.183,66.785 262.087,67.223 260.417,66.785L258.754,68.867Z" style="fill:rgb(41,41,44);"/>
                                <path id="path185" d="M258.719,53.764C258.901,54.404 259.123,55.205 259.249,55.887C259.823,54.611 260.96,54.032 261.968,52.985C261.389,52.593 260.67,52.406 260.034,52.285L260.034,52.243C259.579,52.692 258.879,53.148 258.719,53.764Z" style="fill:rgb(41,41,44);"/>
                                <path id="path187" d="M262.459,60.54L263.383,59.594C264.311,58.643 265.077,57.55 265.215,56.338C264.557,55.948 263.693,56.217 263.057,56.443C262.83,57.776 262.478,59.094 262.459,60.54Z" style="fill:rgb(41,41,44);"/>
                                <path id="path189" d="M263.136,63.444C264.557,63.523 265.939,63.811 267.092,63.008L268.247,59.303C267.873,59.281 267.501,59.114 267.153,59.242C266.392,60.927 264.87,62.597 263.136,63.444Z" style="fill:rgb(41,41,44);"/>
                                <path id="path191" d="M263.554,50.307C264.48,51.665 266.027,53.185 267.609,53.621C267.426,51.889 265.943,50.695 265.18,49.216L265.138,48.721C264.542,48.145 263.82,47.751 263.202,47.445C263.103,48.433 263.372,49.377 263.554,50.307Z" style="fill:rgb(41,41,44);"/>
                                <path id="path193" d="M268.572,63.606C269.664,63.791 270.838,63.606 271.846,63.296C273.307,62.944 274.112,61.34 274.605,60.086L272.772,60.086L270.799,62.02C270.018,62.429 269.276,63.048 268.572,63.606Z" style="fill:rgb(41,41,44);"/>
                                <path id="path195" d="M268.35,48.433C268.66,50.041 269.342,51.502 270.269,52.881L270.513,49.812L268.35,48.433Z" style="fill:rgb(41,41,44);"/>
                                <path id="path197" d="M275.1,56.441C275.225,55.411 274.794,54.215 274.673,53.17C274.055,52.756 273.192,52.796 272.552,52.389C272.594,54.01 273.866,55.392 275.1,56.441Z" style="fill:rgb(41,41,44);"/>
                                <path id="path199" d="M273.228,66.9C274.523,66.488 275.78,66.035 276.976,65.377C277.738,64.284 278.888,63.298 279.055,62.022C278.103,62.289 277.284,61.978 276.398,62.414C275.863,63.38 275.531,64.475 274.504,65.173C274.339,65.868 273.577,66.343 273.228,66.9Z" style="fill:rgb(41,41,44);"/>
                                <path id="path201" d="M275.243,69.432L276.787,71.449C277.612,71.716 278.642,71.636 279.361,71.163L278.809,69.333C277.716,69.74 276.418,69.621 275.243,69.432Z" style="fill:rgb(41,41,44);"/>
                                <path id="path203" d="M277.817,54.857L278.413,57.572C279.854,56.401 280.151,54.692 280.109,52.881C279.286,53.827 278.809,54.404 277.817,54.857Z" style="fill:rgb(41,41,44);"/>
                                <path id="path205" d="M281.876,59.651C281.896,60.045 281.997,60.414 282.221,60.722C283.827,61.301 283.992,63.252 285.477,63.994C286.441,64.429 287.556,63.892 288.397,63.499C287.761,62.779 287.041,62.284 286.423,61.525C285.992,61.34 285.554,61.072 285.578,60.537L281.876,59.651Z" style="fill:rgb(41,41,44);"/>
                                <path id="path207" d="M283.152,69.373C283.849,70.171 284.795,70.587 285.783,70.809C285.62,70.585 285.889,70.809 285.928,70.668L284.692,67.949C284.074,67.971 283.433,68.097 282.859,68.055C282.905,68.508 283.004,68.959 283.152,69.373Z" style="fill:rgb(41,41,44);"/>
                                <path id="path209" d="M285.334,56.69C284.756,55.352 284.518,53.722 284.349,52.243C283.735,52.985 283.095,53.46 282.516,54.217C282.248,55.739 284.428,56.111 285.334,56.69Z" style="fill:rgb(41,41,44);"/>
                                <path id="path211" d="M287.842,55.286C288.588,56.258 290.212,55.928 291.118,55.638C290.685,54.897 289.29,54.461 289.043,53.665C288.903,52.243 288.612,50.86 288.157,49.568C287.437,51.315 286.566,53.396 287.842,55.286Z" style="fill:rgb(41,41,44);"/>
                                <path id="path213" d="M289.14,59.651C291.199,61.153 293.219,62.905 296.097,62.264C296.303,62.124 296.655,62.139 296.695,61.875C295.85,61.34 294.946,60.925 294.081,60.432L293.096,58.993L292.643,58.993C291.529,59.36 290.337,59.51 289.14,59.651Z" style="fill:rgb(41,41,44);"/>
                                <path id="path215" d="M289.182,76.349L289.329,76.349C290.564,75.361 292.024,75.029 293.485,74.62C293.879,74.765 293.63,75.198 293.982,75.361C294.867,74.994 295.938,75.073 296.842,74.765C297.934,74.804 298.82,74.824 299.705,75.297C300.409,76.226 301.722,76.12 302.631,76.74L302.483,75.297C300.571,73.053 297.586,72.89 294.827,72.932L294.766,72.644C294.108,72.644 293.366,72.785 292.748,73.075C291.866,73.117 291.019,73.548 290.174,73.814C289.78,74.598 289.47,75.55 289.182,76.349Z" style="fill:rgb(41,41,44);"/>
                                <path id="path217" d="M290.836,51.047C291.637,52.098 292.832,52.903 294.191,52.635C293.494,51.951 292.687,51.231 292.647,50.266C292.854,48.433 290.836,48.286 289.849,47.34C290.179,48.576 290.135,49.955 290.836,51.047Z" style="fill:rgb(41,41,44);"/>
                                <path id="path219" d="M290.625,79.992L290.872,79.992C291.961,79.314 293.547,79.831 294.618,79.11C295.214,78.8 295.256,79.625 295.668,79.851C296.677,80.465 296.803,82.32 298.222,81.888C299.927,82.773 299.498,84.852 299.559,86.374L301.146,85.389C301,84.586 301.456,83.618 300.939,82.918C300.547,82.034 299.476,81.952 298.961,81.233C299.581,80.181 298.18,79.684 297.89,78.923L297.975,78.822L300.158,79.11C300.899,79.561 301.168,80.386 301.394,81.149C303.099,81.437 303.511,83.371 304.109,84.605C304.461,83.763 304.604,82.854 304.954,82.031C304.976,81.352 304.069,81.352 303.616,81.044C303.495,79.992 303.02,79.006 302.094,78.371C300.2,77.891 298.534,76.846 296.455,76.846L294.726,77.378C293.776,77.607 292.768,77.319 292.046,77.975C290.973,78.058 290.894,79.233 290.625,79.992Z" style="fill:rgb(41,41,44);"/>
                                <path id="path221" d="M291.714,71.511L292.108,71.698C292.953,71.306 293.795,70.853 294.682,70.523C296.057,70.134 297.128,71.698 298.286,70.708C298.715,70.402 299.089,70.853 299.414,71.102C299.916,72.006 301.064,71.944 301.931,72.189C301.498,71.018 300.961,69.412 299.458,69.225C298.862,68.959 298.16,68.981 297.586,68.629C296,66.88 294.972,70.072 293.237,69.291C292.623,69.967 291.859,70.609 291.714,71.511Z" style="fill:rgb(41,41,44);"/>
                                <path id="path223" d="M292.108,81.539C292.766,82.095 293.446,83.043 294.477,82.918C295.751,83.514 295.217,85.204 295.914,86.09L296.655,85.43L296.594,85.386L296.697,85.285L296.741,85.342C296.946,84.729 296.658,83.637 296.306,82.914C295.835,82.586 295.28,82.936 294.825,82.625C294.763,81.963 294.352,81.638 293.879,81.228C293.549,80.978 293.116,81.308 292.744,81.286L292.108,81.539Z" style="fill:rgb(41,41,44);"/>
                                <path id="path225" d="M294.682,56.441C295.36,57.572 296.677,58.274 297.729,59.055C298.596,59.446 299.724,59.55 300.653,59.341C299.766,58.621 298.961,57.796 298.224,56.934C297.934,56.52 297.872,56.003 297.483,55.636C296.515,55.823 295.421,55.801 294.682,56.441Z" style="fill:rgb(41,41,44);"/>
                                <path id="path227" d="M295.817,49.073C296.763,50.246 298.226,49.773 299.564,49.815L299.564,49.669L297.505,47.94C296.928,48.123 296.312,48.638 295.817,49.073Z" style="fill:rgb(41,41,44);"/>
                                <path id="path229" d="M257.916,29.656L259.108,33.363C259.086,31.262 260.058,29.509 259.852,27.37L260.734,26.05L258.859,26.629C258.367,27.575 257.955,28.523 257.916,29.656Z" style="fill:rgb(41,41,44);"/>
                                <path id="path231" d="M258.719,23.232L260.344,22.286L260.344,19.875C259.66,20.286 259.293,20.99 258.758,21.54L258.719,23.232Z" style="fill:rgb(41,41,44);"/>
                                <path id="path233" d="M292.112,26.979C291.721,27.491 291.125,27.619 290.63,27.718C291.496,26.136 291.908,23.932 291.228,22.139C291.679,21.976 292.174,21.892 292.605,21.646L292.563,21.602L293.696,20.614C295.199,19.584 294.62,17.631 295.177,16.168C294.438,15.017 294.211,13.616 293.14,12.648L293.201,12.606C292.357,11.535 290.834,11.66 289.681,11.125C288.155,10.611 286.982,11.66 285.889,12.36C285.416,12.443 285.706,13.059 285.191,13.037C284.903,13.798 284.551,14.623 284.344,15.468C282.307,15.18 280.105,15.407 278.479,16.559C277.61,15.919 276.565,15.798 275.555,15.51C274.814,15.363 273.971,15.631 273.437,15.22C272.656,14.337 272.486,12.729 271.146,12.505C270.673,12.338 270.574,11.823 270.574,11.37C269.688,11.222 268.902,10.813 268.042,10.628C266.724,10.03 265.675,10.98 264.687,11.616C264.252,11.799 263.759,11.862 263.347,12.109C262.608,13.264 261.911,14.436 261.431,15.712C261.579,16.762 262.03,17.686 262.566,18.575C263.039,19.912 264.522,20.964 265.776,21.501C265.18,23.538 265.18,25.964 265.776,28.024C265.776,28.024 265.743,28.052 265.743,28.046C265.743,28.052 265.677,28.107 265.677,28.107C265.484,28.107 265.268,28.145 265.107,28.046L265.081,28.046C265.376,30.012 266.3,31.737 267.796,33.213C268.333,33.398 268.207,34.038 268.432,34.448C268.577,34.635 268.599,35.024 268.537,35.189C265.323,35.088 262.461,35.891 259.887,37.352C259.229,37.682 259.517,38.586 259.456,39.226C261.268,38.029 263.222,37.147 265.385,36.753C266.311,36.696 267.358,36.465 268.247,36.711L268.348,38.487C265.902,39.765 263.222,40.504 261.125,42.605C261.165,43.241 261.042,43.98 261.227,44.517L263.103,42.995C264.914,41.613 266.808,40.44 268.885,39.679C269.444,40.337 270.02,41.041 270.761,41.45C272.015,40.645 273.377,40.049 274.818,39.679C275.579,39.226 276.796,39.637 277.289,38.733L277.636,36.859C277.579,36.817 277.535,36.733 277.432,36.753C276.466,36.197 275.826,35.231 275.909,34.1C275.579,34.263 275.212,34.368 274.818,34.384C274.493,34.305 274.18,34.221 274.037,33.889C274.017,33.48 273.808,32.861 274.224,32.556C275.56,31.731 277.291,31.689 278.978,31.812C280.232,31.979 282.045,31.915 282.481,33.398C282.419,33.832 282.459,34.307 282.025,34.593C281.572,34.839 281.06,34.571 280.646,34.384C280.318,35.396 279.762,36.527 278.631,36.857L278.772,38.049C278.912,38.586 278.956,39.47 279.801,39.283C281.757,39.761 283.488,40.768 285.196,41.857C285.774,41.283 286.225,40.623 286.634,40.025C289.686,41.059 292.317,43.342 294.834,45.465L294.933,43.734C292.544,41.611 289.89,40.11 287.129,38.938C287.235,38.381 287.358,37.844 287.38,37.246C290.652,37.433 293.76,38.443 296.455,40.025L296.413,38.544C293.573,37.019 290.465,36.012 287.07,35.972C286.942,35.787 286.903,35.519 286.925,35.334C288.573,35.068 289.743,33.361 290.137,31.874C290.984,30.908 292.198,29.856 291.91,28.417C291.945,28.296 291.987,28.171 292.031,28.046C292.139,27.691 292.231,27.313 292.112,26.979Z" style="fill:rgb(41,41,44);"/>
                                <path id="path235" d="M294.972,32.272L296.66,31.735L296.849,30.791C297.322,29.41 296.312,28.38 295.817,27.289L294.972,32.272Z" style="fill:rgb(41,41,44);"/>
                                <path id="path237" d="M299.234,38.795C300.037,39.681 300.82,41.1 302.241,40.669C302.136,40.071 301.806,39.576 301.603,39.041C301.234,38.61 301.106,37.374 300.367,37.807C299.81,37.437 299.669,36.819 299.315,36.324C299.155,37.088 299.256,38.034 299.234,38.795Z" style="fill:rgb(41,41,44);"/>
                                <path id="path239" d="M299.522,44.827C299.832,45.258 299.918,45.817 300.222,46.209C300.778,46.576 301.603,46.515 302.285,46.455C302.899,46.31 303.293,46.988 303.867,46.598C303.148,46.145 302.716,45.322 302.039,44.722C301.234,44.088 300.369,44.645 299.522,44.827Z" style="fill:rgb(41,41,44);"/>
                                <path id="path241" d="M300.615,54.404C302.037,55.246 303.841,56.071 305.737,55.783C305.942,55.682 306.294,55.702 306.333,55.455C305.158,55.042 303.926,53.869 302.694,53.623C302.015,52.573 301.128,53.891 300.263,53.808C300.283,54.052 300.53,54.237 300.615,54.404Z" style="fill:rgb(41,41,44);"/>
                                <path id="path243" d="M304.89,72.582L305.2,73.24C305.513,75.383 306.866,77.356 306.126,79.704C306.745,80.139 306.929,80.859 307.323,81.435L307.424,81.435C307.897,79.647 307.57,77.792 307.323,75.999C307.508,74.373 305.858,73.427 304.89,72.582Z" style="fill:rgb(41,41,44);"/>
                                <path id="path245" d="M305.246,51.5C306.316,52.325 308.025,52.404 309.259,51.995C308.478,51.564 307.614,51.086 306.973,50.512L305.246,51.5Z" style="fill:rgb(41,41,44);"/>
                                <path id="path247" d="M310.328,57.818C310.227,58.685 310.801,59.404 311.42,59.84C311.646,59.327 312.014,58.89 312.055,58.315C311.871,57.431 311.376,56.626 310.573,56.027C310.432,56.604 310.265,57.16 310.328,57.818Z" style="fill:rgb(41,41,44);"/>
                                <path id="path249" d="M310.39,67.21C310.243,68.176 311.314,68.301 311.765,68.836C312.137,69.289 311.519,69.599 311.519,70.03C312.302,71.038 312.757,72.186 312.757,73.528C313.063,72.274 313.536,71.08 313.703,69.784C313.62,68.875 312.181,69.065 312.405,68.055C312.819,67.025 312.324,66.018 312.055,65.087C311.976,64.946 311.787,64.656 311.626,64.742C311.252,65.582 310.328,66.18 310.39,67.21Z" style="fill:rgb(41,41,44);"/>
                                <path id="path251" d="M313.21,62.308L314.28,64.387C314.753,64.326 315.061,63.873 315.43,63.543C315.718,62.678 314.955,62.121 314.733,61.42C314.546,60.925 314.733,60.269 314.381,59.838C314.112,59.671 313.807,59.402 313.499,59.486L313.21,62.308Z" style="fill:rgb(41,41,44);"/>
                                <path id="path253" d="M314.585,56.83C315.432,57.345 316.398,58.084 316.854,58.993C317.573,61.094 318.726,62.984 319.568,65.023C319.879,66.444 320.125,67.714 320.514,69.111C320.662,69.483 320.578,70.202 321.157,70.14C321.317,68.576 321.628,67.071 321.65,65.446C321.135,64.766 320.457,64.48 319.817,64.068L319.817,63.923C319.901,63.576 320.191,63.16 320.62,63.226C320.803,63.019 321.361,62.814 321.115,62.443C320.044,61.373 320.105,59.532 318.4,59.2C317.802,58.953 317.659,58.333 317.597,57.761C316.792,57.077 315.6,56.852 314.585,56.83Z" style="fill:rgb(41,41,44);"/>
                                <path id="path255" d="M315.58,67.991C316.627,68.957 316.26,70.358 316.176,71.656C316.013,72.439 316.999,71.982 317.309,72.398C317.949,73.344 317.577,74.725 317.353,75.753C317.91,74.906 318.545,74.166 318.977,73.238C318.959,72.89 319.41,72.723 319.39,72.29C319.573,71.694 318.875,71.962 318.585,71.9C318.339,71.839 318.072,71.674 318.156,71.344C318.686,70.314 318.196,69.08 317.989,68.05C317.742,67.206 318.094,66.073 317.698,65.331C317.038,66.242 315.08,66.447 315.58,67.991Z" style="fill:rgb(41,41,44);"/>
                                <path id="path257" d="M317.492,53.374C319.326,55.229 320.664,57.09 322.64,58.883C322.681,58.078 322.578,57.339 322.538,56.555C322.25,55.999 321.713,55.59 321.258,55.174C319.797,55.033 319.036,53.064 317.492,53.374Z" style="fill:rgb(41,41,44);"/>
                                <path id="path259" d="M322.285,63.184C322.329,63.373 322.413,63.536 322.497,63.719C323.297,65.039 324.061,66.398 324.617,67.817C324.45,66.293 325.48,64.401 324.118,63.226C323.935,62.729 323.322,62.896 322.926,62.935L322.285,63.184Z" style="fill:rgb(41,41,44);"/>
                                <path id="path261" d="M327.229,78.223C327.805,78.492 328.547,78.019 329.103,77.689C329.618,77.565 330.049,77.856 330.443,78.122C330.606,78.45 330.443,78.76 330.505,79.07C331.739,79.418 332.951,79.873 334.042,80.593L334.39,80.243C334.473,79.358 333.776,78.718 333.114,78.223C332.685,77.977 332.042,78.122 331.737,77.73C331.943,77.4 331.943,76.905 331.921,76.536C331.242,76.536 330.808,76.327 330.256,76.001C329.904,75.898 329.594,75.607 329.306,76.001C328.278,76.699 328.217,77.73 327.229,78.223Z" style="fill:rgb(41,41,44);"/>
                                <path id="path263" d="M328.674,52.316C329.187,52.169 329.724,52.026 330.155,51.654C331.536,50.398 333.532,51.242 335.14,51.223C334.83,50.666 334.394,50.109 334.005,49.636C333.426,49.41 332.892,49.144 332.234,49.144C330.832,48.319 329.889,49.7 328.815,50.378C328.525,50.934 328.384,51.757 328.674,52.316Z" style="fill:rgb(41,41,44);"/>
                                <path id="path265" d="M328.709,56.555C328.709,56.492 328.709,56.428 328.771,56.412C328.96,56.575 328.751,56.971 329.061,57.05C329.596,56.782 330.091,56.412 330.584,56.063C331.963,56.063 332.788,54.723 334.143,54.723C336.412,55.136 338.656,55.592 340.629,56.698C340.488,55.365 339.331,54.146 338.161,53.55C337.498,53.324 336.984,53.673 336.513,54.045C335.136,54.912 335.855,52.789 334.889,52.747C333.631,53.137 332.333,53.572 330.934,53.445C330.111,53.757 329.532,54.516 328.606,54.432C328.569,55.117 328.467,55.942 328.709,56.555Z" style="fill:rgb(41,41,44);"/>
                                <path id="path267" d="M329.66,61.145C330.091,61.602 330.81,61.519 331.431,61.602L333.222,60.898C333.241,60.575 332.687,60.487 332.81,60.117C333.305,59.561 333.981,59.954 334.601,59.728C335.463,59.602 336.35,58.742 337.215,59.376C337.188,59.481 337.252,59.622 337.171,59.728C336.904,60.366 337.355,60.757 337.85,61.004C338.86,61.189 339.804,62.117 340.814,61.701C340.713,60.856 340.488,60.08 340.281,59.272C339.437,59.129 338.838,58.43 338.057,58.139C337.71,58.469 337.252,58.716 336.821,58.674C335.235,58.302 333.338,57.314 331.734,58.324C331.158,59.026 330.128,58.819 329.345,59.127C329.391,59.827 329.473,60.509 329.66,61.145Z" style="fill:rgb(41,41,44);"/>
                                <path id="path269" d="M330.34,73.385C330.216,73.735 329.867,74.309 330.507,74.477C331.822,74.516 333.512,73.836 334.542,74.866C334.891,75.134 334.724,75.691 334.702,76.041L336.431,77.482C336.596,76.613 336.909,75.832 336.931,74.906C336.786,74.246 336.456,73.61 335.879,73.179C334.744,73.179 334.088,71.852 332.87,72.015C332.234,71.874 331.677,72.439 331.037,72.439C330.753,72.725 330.586,73.077 330.34,73.385Z" style="fill:rgb(41,41,44);"/>
                                <path id="path271" d="M330.832,63.677C331.099,64.233 331.411,65.14 331.924,65.199C333.138,64.669 334.911,64.337 336.269,64.915C336.72,64.995 336.72,65.509 336.621,65.839C337.318,66.251 338.163,66.581 338.904,67.032L338.697,65.795C338.656,64.458 336.97,64.337 336.865,63.017C335.485,62.566 333.941,62.418 332.48,62.77C332.007,63.202 331.325,63.144 330.753,63.265C330.711,63.43 330.81,63.536 330.832,63.677Z" style="fill:rgb(41,41,44);"/>
                                <path id="path273" d="M331.182,70.349C331.985,70.121 332.502,69.238 333.367,69.155C334.682,69.177 335.857,69.714 336.682,70.849C337.175,71.172 337.072,72.017 337.712,72.017C337.523,71.009 337.853,70.085 337.811,69.051C336.951,67.613 334.808,68.726 334.005,67.034L332.482,67.137C331.389,67.408 331.679,68.684 331.536,69.551C331.411,69.815 331.165,70.022 331.182,70.349Z" style="fill:rgb(41,41,44);"/>
                                <path id="path275" d="M338.741,79.356C339.377,80.632 340.781,81.6 340.922,83.061C341.249,82.672 341.478,82.218 341.703,81.785C341.681,81.374 341.208,81.374 341.025,81.044C340.836,80.509 341.124,80.036 341.208,79.561C340.939,78.8 340.299,78.08 339.582,77.625L338.741,79.356Z" style="fill:rgb(41,41,44);"/>
                                <path id="path277" d="M341.274,76.102L342.754,78.122C343.39,77.114 343.39,75.629 343.144,74.415C343.003,74.186 342.732,73.817 342.365,73.984C341.808,74.558 341.725,75.445 341.274,76.102Z" style="fill:rgb(41,41,44);"/>
                                <path id="path279" d="M335.239,19.747C335.774,20.016 336.288,20.262 336.931,20.304C337.36,20.077 337.919,19.91 338.453,20.057C339.214,20.552 340.141,19.954 341.027,19.996C340.244,19.254 339.355,18.799 338.453,18.368C337.298,18.612 336.374,19.437 335.239,19.747Z" style="fill:rgb(41,41,44);"/>
                                <path id="path281" d="M343.289,21.679C344.38,21.782 345.165,22.75 345.902,23.553C346.829,23.694 347.528,24.356 348.083,25.034L347.737,23.945C347.491,22.851 346.807,22.007 346.109,21.142C345.121,21.206 344.151,21.292 343.289,21.679Z" style="fill:rgb(41,41,44);"/>
                            </g>
                            <g>
                                <path id="path283" d="M266.458,12.65L267.057,12.714C268.658,13.517 271.252,13.928 271.402,16.254C269.771,16.894 268.207,17.756 266.909,19.074C265.924,18.066 263.926,18.621 263.594,16.852C263.906,15.18 264.5,13.079 266.458,12.65Z" style="fill:white;"/>
                                <path id="path285" d="M268.005,23.091C269.879,22.924 271.69,23.19 273.626,23.027C274.097,23.232 274.589,23.641 274.818,24.116C274.754,26.341 274.077,28.464 273.976,30.747C273.131,31.095 272.306,31.799 272.099,32.723C271.338,32.949 270.656,33.4 269.914,33.75C269.591,33.053 269.648,32.001 270.227,31.423C271.03,30.292 273.111,30.556 272.946,28.765C273.481,27.903 272.968,26.789 272.983,25.885C272.779,25.203 272.572,26.112 272.244,26.09C271.586,26.231 270.909,26.272 270.33,25.942C269.897,25.489 269.367,25.117 269.239,24.504C268.66,24.215 267.985,23.764 267.695,23.166L268.005,23.091Z" style="fill:white;"/>
                                <path id="path287" d="M270.269,36.509C271.149,36.637 272.079,36.241 272.84,36.676C272.68,36.967 272.244,37.088 271.894,37.171L270.513,37.807C270,37.686 270.288,36.861 270.269,36.509Z" style="fill:white;"/>
                                <path id="path289" d="M273.87,19.32C274.752,19.032 275.703,18.438 276.649,18.722C275.971,19.404 275.436,20.286 274.922,21.111L272.101,21.05C272.411,20.306 273.192,19.692 273.87,19.32Z" style="fill:white;"/>
                                <path id="path291" d="M282.127,18.643C283.299,18.438 283.235,19.961 284.307,20.018C284.496,20.264 284.764,20.491 284.659,20.863C284.038,21.109 283.134,20.99 282.435,21.151C281.506,20.636 282.107,19.03 280.644,19.133C280.562,19.008 280.4,18.762 280.602,18.68C281.055,18.517 281.656,18.579 282.127,18.643Z" style="fill:white;"/>
                                <path id="path293" d="M281.385,24.156C281.9,23.434 282.683,23.375 283.425,23.232L288.757,23.331C288.984,23.54 288.551,23.725 288.551,23.971C288.223,24.281 287.748,24.365 287.459,24.651C286.76,24.671 286.821,25.496 286.329,25.848C285.565,26.609 284.452,26.257 283.568,26.136C283.26,25.907 282.91,25.599 282.762,25.249L282.516,25.496C282.826,26.651 282.745,27.927 282.974,29.099L284.25,29.944C284.269,31.836 286.494,31.321 287.459,32.373C287.233,33.055 286.78,33.629 286.287,34.206C285.506,33.444 284.617,32.952 283.673,32.619C283.59,31.513 282.375,30.851 281.7,30.296C281.511,28.277 281.471,26.217 281.143,24.262L281.385,24.156Z" style="fill:white;"/>
                                <path id="path295" d="M283.321,36.861L285.794,36.861L285.484,38.157L283.009,37.107C282.952,36.903 283.176,36.841 283.321,36.861Z" style="fill:white;"/>
                                <path id="path297" d="M287.767,13.537L289.6,12.96C290.652,13.453 291.637,14.069 292.605,14.771C293.366,16.17 293.245,18.064 292.893,19.628C292.337,20.244 291.122,19.628 290.671,20.616L290.586,20.616C289.908,18.682 287.972,16.949 286.181,16.069C286.469,15.079 286.78,14.111 287.767,13.537Z" style="fill:white;"/>
                            </g>
                        </g>
                    </g>
                </g>
            </g>
        </g>
    </g>
</svg>
