<?xml version="1.0" encoding="UTF-8" standalone="no"?>
<!DOCTYPE svg PUBLIC "-//W3C//DTD SVG 1.1//EN" "http://www.w3.org/Graphics/SVG/1.1/DTD/svg11.dtd">
<svg width="100%" height="100%" viewBox="0 0 2500 484" version="1.1" xmlns="http://www.w3.org/2000/svg" xmlns:xlink="http://www.w3.org/1999/xlink" xml:space="preserve" xmlns:serif="http://www.serif.com/" style="fill-rule:evenodd;clip-rule:evenodd;stroke-linejoin:round;stroke-miterlimit:2;">
    <g opacity="0.3">
        <path d="M1072.52,128.702C1024.26,128.702 993.453,153.689 974.627,183.468L972.915,183.468L973.6,135.205L880.154,135.205C871.597,135.205 864.066,145.816 864.066,155.4L864.066,453.194C864.066,462.778 871.939,472.704 880.496,472.704L973.6,472.704L973.6,305.666C973.6,257.403 986.949,219.066 1033.84,219.066C1079.03,219.066 1085.87,252.611 1085.87,297.109L1085.87,452.851C1085.87,463.463 1093.74,472.362 1101.96,472.362L1195.4,472.362L1195.4,272.806C1195.75,191.683 1170.42,128.702 1072.52,128.702ZM1794.76,128.702C1750.6,128.702 1720.14,144.789 1702.34,161.219C1703.02,148.897 1703.02,131.44 1703.02,113.983L1703.02,0.342L1609.92,0.342C1601.36,0.342 1593.83,10.953 1593.83,19.853L1593.83,452.851C1593.83,463.463 1601.7,472.362 1610.26,472.362L1697.89,472.362L1697.2,444.636C1722.19,468.597 1756.08,479.893 1794.07,479.893C1891.97,479.893 1954.26,403.219 1954.26,303.955C1953.58,205.033 1891.97,128.702 1794.76,128.702ZM1771.14,388.843C1725.27,388.843 1693.44,353.245 1693.44,301.216C1693.44,249.188 1724.93,213.59 1771.14,213.59C1817.01,213.59 1847.81,249.188 1847.81,301.216C1847.81,353.245 1817.35,388.843 1771.14,388.843ZM844.898,134.863L732.284,134.863C723.727,134.863 714.827,139.655 709.351,146.158L616.248,246.792L616.248,0L522.46,0C513.902,0 506.372,10.611 506.372,19.511L506.372,452.851C506.372,462.436 512.876,472.362 522.46,472.362L615.905,472.362L615.905,370.359L646.369,341.264L721.331,459.697C728.177,469.281 737.761,472.362 749.057,472.362L854.825,472.362L721.331,261.168L844.898,134.863ZM1511.68,168.065C1484.98,143.078 1448.36,128.702 1385.72,128.702C1331.98,128.702 1285.77,143.762 1255.31,156.427C1247.43,160.192 1244.01,170.803 1247.43,178.676L1269.68,234.47C1287.14,223.174 1329.92,204.006 1372.71,204.006C1416.87,204.006 1441.85,222.489 1441.85,258.088L1441.85,265.618L1356.62,268.699C1294.33,271.437 1225.18,296.767 1225.18,371.728C1225.18,446.69 1288.51,479.208 1348.07,479.208C1402.83,479.208 1430.56,450.455 1444.93,436.079L1446.65,459.013C1447.33,465.516 1453.15,471.335 1461.71,471.335L1552.07,471.335L1552.07,282.048C1551.73,225.57 1537.7,192.71 1511.68,168.065ZM1443.22,379.943C1436.38,391.581 1416.53,410.75 1387.43,410.75C1356.97,410.75 1335.74,394.662 1335.74,369.332C1335.74,344.345 1355.26,329.284 1388.8,328.257L1442.88,325.177L1442.88,379.943L1443.22,379.943ZM1965.22,484C1949.13,484 1937.15,471.678 1937.15,455.932C1937.15,439.844 1949.47,427.864 1965.22,427.864C1980.96,427.864 1993.29,440.187 1993.29,455.932C1993.63,472.02 1980.62,484 1965.22,484ZM1965.22,431.972C1951.87,431.972 1941.26,442.583 1941.26,455.932C1941.26,469.281 1951.87,479.893 1965.22,479.893C1978.57,479.893 1989.18,469.281 1989.18,455.932C1989.18,442.583 1978.57,431.972 1965.22,431.972ZM1979.25,472.362L1971.38,472.362L1964.53,459.013L1961.45,459.013L1961.45,472.362L1954.61,472.362L1954.61,439.502L1966.25,439.502C1973.09,439.502 1977.88,443.267 1977.88,449.771C1977.88,456.274 1973.78,458.328 1971.04,459.355L1979.25,472.362ZM1964.88,445.321L1961.11,445.321L1961.11,454.221L1964.88,454.221C1967.96,454.221 1970.69,453.536 1970.69,450.113C1970.69,445.663 1967.96,445.321 1964.88,445.321Z" style="fill:white;fill-rule:nonzero;"/>
    </g>
</svg>
