<?xml version="1.0" encoding="UTF-8" standalone="no"?>
<!DOCTYPE svg PUBLIC "-//W3C//DTD SVG 1.1//EN" "http://www.w3.org/Graphics/SVG/1.1/DTD/svg11.dtd">
<svg width="100%" height="100%" viewBox="0 0 1359 770" version="1.1" xmlns="http://www.w3.org/2000/svg" xmlns:xlink="http://www.w3.org/1999/xlink" xml:space="preserve" xmlns:serif="http://www.serif.com/" style="fill-rule:evenodd;clip-rule:evenodd;stroke-linejoin:round;stroke-miterlimit:2;">
    <g transform="matrix(6.09305,0,0,6.09305,-313.792,-317.558)">
        <g opacity="0.3">
            <g transform="matrix(1,0,0,1,206.116,71.4221)">
                <path d="M0,31.412C-8.674,31.412 -15.706,24.38 -15.706,15.705C-15.706,7.031 -8.674,-0.001 0,-0.001C8.675,-0.001 15.706,7.031 15.706,15.705C15.706,24.38 8.675,31.412 0,31.412M-86.192,31.412C-94.866,31.412 -101.898,24.38 -101.898,15.705C-101.898,7.031 -94.866,-0.001 -86.192,-0.001C-77.518,-0.001 -70.486,7.031 -70.486,15.705C-70.486,24.38 -77.518,31.412 -86.192,31.412M0,-19.304C-7.603,-19.304 -14.633,-16.874 -20.373,-12.757L-51.651,10.004C-54.376,-6.619 -68.799,-19.304 -86.192,-19.304C-105.527,-19.304 -121.202,-3.63 -121.202,15.705C-121.202,35.041 -105.527,50.716 -86.192,50.716C-78.549,50.716 -71.482,48.259 -65.726,44.101L-34.539,21.415C-31.812,38.034 -17.39,50.716 0,50.716C19.336,50.716 35.011,35.041 35.011,15.705C35.011,-3.63 19.336,-19.304 0,-19.304" style="fill:white;fill-rule:nonzero;"/>
            </g>
            <g transform="matrix(1,0,0,1,191.281,151.582)">
                <path d="M0,5.972C0,2.601 -2.711,-0.143 -6.043,-0.143C-9.374,-0.143 -12.085,2.601 -12.085,5.972C-12.085,9.343 -9.374,12.086 -6.043,12.086C-2.711,12.086 0,9.343 0,5.972M8.111,5.972C8.111,13.869 1.762,20.294 -6.043,20.294C-13.847,20.294 -20.196,13.869 -20.196,5.972C-20.196,-1.926 -13.847,-8.351 -6.043,-8.351C1.762,-8.351 8.111,-1.926 8.111,5.972M-48.506,-8.09L-56.738,-8.09L-62.587,6.896L-68.882,-8.09L-77.662,-8.09L-66.495,16.91L-70.354,26.8L-62.122,26.8L-48.506,-8.09ZM24.923,-8.114C23.184,-8.114 21.419,-7.759 19.764,-7.087L19.764,-8.151L11.651,-8.151L11.651,20.2L19.764,20.2L19.764,5.286C19.764,0.241 24.396,0.094 24.923,0.094C26.28,0.094 27.509,0.541 28.382,1.353C29.377,2.278 29.881,3.661 29.881,5.465L29.881,20.013L37.993,20.013L37.993,5.465C37.993,-3.449 31.418,-8.114 24.923,-8.114M-88.719,5.263C-89.067,2.225 -91.623,-0.142 -94.717,-0.142C-98.048,-0.142 -100.759,2.601 -100.759,5.972C-100.759,9.343 -98.048,12.086 -94.717,12.086C-91.623,12.086 -89.067,9.718 -88.719,6.681L-88.719,5.263ZM-80.606,20.2L-88.719,20.2L-88.719,18.926C-90.543,19.794 -92.57,20.294 -94.717,20.294C-102.521,20.294 -108.871,13.869 -108.871,5.972C-108.871,-1.926 -102.521,-8.351 -94.717,-8.351C-92.57,-8.351 -90.543,-7.851 -88.719,-6.983L-88.719,-8.151L-80.606,-8.151L-80.606,20.2ZM-119.461,5.972C-119.461,2.601 -122.172,-0.142 -125.503,-0.142C-128.834,-0.142 -131.545,2.601 -131.545,5.972C-131.545,9.343 -128.834,12.086 -125.503,12.086C-122.172,12.086 -119.461,9.343 -119.461,5.972M-111.349,5.972C-111.349,13.869 -117.698,20.294 -125.503,20.294C-127.715,20.294 -129.803,19.764 -131.669,18.844L-131.669,26.708L-139.781,26.708L-139.781,-8.152L-131.669,-8.152L-131.669,-6.9C-129.803,-7.82 -127.715,-8.351 -125.503,-8.351C-117.698,-8.351 -111.349,-1.926 -111.349,5.972M-34.336,-0.143C-32.302,-0.143 -30.415,0.889 -29.29,2.618L-22.515,-1.898C-25.146,-5.939 -29.564,-8.351 -34.336,-8.351C-42.141,-8.351 -48.49,-1.926 -48.49,5.972C-48.49,13.869 -42.141,20.294 -34.336,20.294C-29.609,20.294 -25.213,17.92 -22.575,13.941L-29.313,9.368C-30.44,11.071 -32.318,12.086 -34.336,12.086C-37.668,12.086 -40.379,9.343 -40.379,5.972C-40.379,2.601 -37.668,-0.143 -34.336,-0.143M75.086,5.972C75.086,2.601 72.375,-0.142 69.044,-0.142C65.712,-0.142 63.001,2.601 63.001,5.972C63.001,9.343 65.712,12.086 69.044,12.086C72.375,12.086 75.086,9.343 75.086,5.972M83.26,-8.152L83.26,26.708L75.147,26.708L75.147,18.874C73.296,19.775 71.231,20.294 69.044,20.294C61.239,20.294 54.89,13.869 54.89,5.972C54.89,-1.926 61.239,-8.351 69.044,-8.351C71.231,-8.351 73.296,-7.832 75.147,-6.931L75.147,-8.152L83.26,-8.152ZM47.246,-20.825C44.634,-20.828 42.516,-18.688 42.514,-16.045C42.511,-13.403 44.626,-11.258 47.237,-11.256C49.849,-11.254 51.968,-13.394 51.971,-16.036C51.972,-18.679 49.857,-20.823 47.246,-20.825M43.197,-8.206L51.309,-8.206L51.309,20.199L43.197,20.199L43.197,-8.206Z" style="fill:white;fill-rule:nonzero;"/>
            </g>
        </g>
    </g>
</svg>
