<?xml version="1.0" encoding="UTF-8" standalone="no"?>
<!DOCTYPE svg PUBLIC "-//W3C//DTD SVG 1.1//EN" "http://www.w3.org/Graphics/SVG/1.1/DTD/svg11.dtd">
<svg width="100%" height="100%" viewBox="0 0 2500 762" version="1.1" xmlns="http://www.w3.org/2000/svg" xmlns:xlink="http://www.w3.org/1999/xlink" xml:space="preserve" xmlns:serif="http://www.serif.com/" style="fill-rule:evenodd;clip-rule:evenodd;stroke-linejoin:round;stroke-miterlimit:2;">
    <g transform="matrix(0.735136,0,0,0.735136,331.155,100.959)">
        <path d="M105.238,20.484C84.386,20.566 63.533,28.636 47.269,44.86C29.858,62.23 21.05,85.705 20.968,109.261L20.968,109.794C21.05,131.629 28.629,153.465 43.951,170.467L243.054,391.488C245.553,394.274 245.963,398.37 244.119,401.607L244.283,401.771L344.367,228.395L344.285,228.354C341.335,233.434 334.289,234.172 330.315,229.788L166.608,48.014C150.18,29.784 128.057,20.566 105.812,20.484L105.238,20.484Z" style="fill:url(#_Linear1);fill-rule:nonzero;"/>
    </g>
    <g opacity="0.3">
        <g transform="matrix(0.735136,0,0,0.735136,331.155,100.959)">
            <path d="M438.224,65.958L123.182,610.706C99.38,651.879 113.637,705.055 154.891,728.816C196.146,752.618 249.404,738.362 273.206,697.148L588.207,152.4C612.009,111.227 597.753,58.051 556.498,34.29C543.412,26.725 528.556,22.753 513.441,22.778C483.453,22.778 454.202,38.264 438.224,65.958ZM1001.78,23.638C1199.98,23.638 1360.69,184.068 1360.69,381.983C1360.69,579.898 1199.98,740.328 1001.78,740.328C803.575,740.328 642.858,579.898 642.858,381.983C642.858,184.068 803.575,23.638 1001.78,23.638ZM1001.78,568.182C1104.61,568.182 1188.22,484.648 1188.22,381.983C1188.22,279.359 1104.61,195.826 1001.78,195.826C898.947,195.826 815.291,279.359 815.291,381.983C815.291,484.648 898.947,568.182 1001.78,568.182ZM1484.75,109.998L1484.38,655.033C1484.38,702.597 1523.17,741.393 1570.78,741.393L1570.61,741.311L1867.18,741.311C1914.41,741.311 1952.72,703.047 1952.72,655.853L1952.72,654.828C1952.72,607.183 1913.72,568.223 1866.03,568.223L1666.72,568.223C1661.98,568.223 1658.08,564.32 1658.08,559.578L1658.08,109.998C1658.08,62.476 1618.71,23.515 1571.11,23.475C1523.54,23.515 1484.75,62.435 1484.75,109.998ZM1571.02,23.475L1571.19,23.475L1571.02,23.475ZM1982.46,23.147C1934.86,23.147 1896.06,62.435 1896.02,109.957C1896.06,157.521 1934.86,196.195 1982.46,196.195L2091.03,196.195C2095.78,196.195 2099.67,200.086 2099.67,204.839L2099.67,655.525C2099.67,703.047 2139.12,740.902 2186.69,740.984C2234.29,740.902 2273.01,703.047 2273.01,655.525L2273.01,204.839C2273.01,200.086 2276.86,196.195 2281.65,196.195L2392.22,196.195C2439.87,196.195 2478.83,157.275 2478.83,109.753C2478.83,62.107 2439.78,23.147 2392.1,23.147L1982.46,23.147ZM1896.02,110.039L1896.02,109.916L1896.02,110.039ZM2186.61,740.984L2186.81,740.984L2186.61,740.984Z" style="fill:white;fill-rule:nonzero;"/>
        </g>
    </g>
    <defs>
        <linearGradient id="_Linear1" x1="0" y1="0" x2="1" y2="0" gradientUnits="userSpaceOnUse" gradientTransform="matrix(-216.801,-346.956,346.956,-216.801,298.577,367.792)"><stop offset="0" style="stop-color:white;stop-opacity:0"/><stop offset="0.4" style="stop-color:white;stop-opacity:0.3"/><stop offset="1" style="stop-color:white;stop-opacity:0.3"/></linearGradient>
    </defs>
</svg>
